<?xml version="1.0" encoding="UTF-8"?>
<svg xmlns="http://www.w3.org/2000/svg" version="1.1" width="150" height="150" viewBox="0 0 150 150"><rect x="0" y="0" width="150" height="150" fill="#ffffff"/><g transform="scale(3.659)"><g transform="translate(0,0)"><path fill-rule="evenodd" d="M8 0.25L8 0.75A0.25 0.25 0 0 0 8.25 1L8.75 1A0.25 0.25 0 0 0 9 0.75L9 0.25A0.25 0.25 0 0 0 8.75 0L8.25 0A0.25 0.25 0 0 0 8 0.25ZM10 0.25L10 1.75A0.25 0.25 0 0 1 9.75 2L8.25 2A0.25 0.25 0 0 0 8 2.25L8 4.75A0.25 0.25 0 0 0 8.25 5L8.75 5A0.25 0.25 0 0 1 9 5.25L9 5.75A0.25 0.25 0 0 1 8.75 6L8.25 6A0.25 0.25 0 0 0 8 6.25L8 6.75A0.25 0.25 0 0 0 8.25 7L8.75 7A0.25 0.25 0 0 0 9 6.75L9 6.25A0.25 0.25 0 0 1 9.25 6L9.75 6A0.25 0.25 0 0 1 10 6.25L10 7.75A0.25 0.25 0 0 0 10.25 8L11.75 8A0.25 0.25 0 0 0 12 7.75L12 7.25A0.25 0.25 0 0 1 12.25 7L12.75 7A0.25 0.25 0 0 0 13 6.75L13 6.25A0.25 0.25 0 0 1 13.25 6L13.75 6A0.25 0.25 0 0 1 14 6.25L14 7.75A0.25 0.25 0 0 1 13.75 8L13.25 8A0.25 0.25 0 0 0 13 8.25L13 10.75A0.25 0.25 0 0 0 13.25 11L13.75 11A0.25 0.25 0 0 0 14 10.75L14 9.25A0.25 0.25 0 0 1 14.25 9L15.75 9A0.25 0.25 0 0 1 16 9.25L16 9.75A0.25 0.25 0 0 0 16.25 10L17.75 10A0.25 0.25 0 0 1 18 10.25L18 10.75A0.25 0.25 0 0 1 17.75 11L17.25 11A0.25 0.25 0 0 0 17 11.25L17 11.75A0.25 0.25 0 0 1 16.75 12L14.25 12A0.25 0.25 0 0 0 14 12.25L14 12.75A0.25 0.25 0 0 1 13.75 13L13.25 13A0.25 0.25 0 0 0 13 13.25L13 13.75A0.25 0.25 0 0 1 12.75 14L12.25 14A0.25 0.25 0 0 1 12 13.75L12 13.25A0.25 0.25 0 0 0 11.75 13L10.25 13A0.25 0.25 0 0 1 10 12.75L10 12.25A0.25 0.25 0 0 1 10.25 12L11.75 12A0.25 0.25 0 0 0 12 11.75L12 11.25A0.25 0.25 0 0 0 11.75 11L10.25 11A0.25 0.25 0 0 1 10 10.75L10 10.25A0.25 0.25 0 0 1 10.25 10L10.75 10A0.25 0.25 0 0 0 11 9.75L11 9.25A0.25 0.25 0 0 0 10.75 9L9.25 9A0.25 0.25 0 0 1 9 8.75L9 8.25A0.25 0.25 0 0 0 8.75 8L8.25 8A0.25 0.25 0 0 0 8 8.25L8 8.75A0.25 0.25 0 0 1 7.75 9L7.25 9A0.25 0.25 0 0 1 7 8.75L7 8.25A0.25 0.25 0 0 0 6.75 8L6.25 8A0.25 0.25 0 0 0 6 8.25L6 8.75A0.25 0.25 0 0 1 5.75 9L5.25 9A0.25 0.25 0 0 0 5 9.25L5 9.75A0.25 0.25 0 0 1 4.75 10L4.25 10A0.25 0.25 0 0 0 4 10.25L4 10.75A0.25 0.25 0 0 1 3.75 11L3.25 11A0.25 0.25 0 0 1 3 10.75L3 10.25A0.25 0.25 0 0 0 2.75 10L2.25 10A0.25 0.25 0 0 1 2 9.75L2 9.25A0.25 0.25 0 0 1 2.25 9L3.75 9A0.25 0.25 0 0 0 4 8.75L4 8.25A0.25 0.25 0 0 0 3.75 8L0.25 8A0.25 0.25 0 0 0 0 8.25L0 9.75A0.25 0.25 0 0 0 0.25 10L0.75 10A0.25 0.25 0 0 1 1 10.25L1 12.75A0.25 0.25 0 0 1 0.75 13L0.25 13A0.25 0.25 0 0 0 0 13.25L0 14.75A0.25 0.25 0 0 0 0.25 15L1.75 15A0.25 0.25 0 0 0 2 14.75L2 14.25A0.25 0.25 0 0 1 2.25 14L2.75 14A0.25 0.25 0 0 1 3 14.25L3 14.75A0.25 0.25 0 0 0 3.25 15L3.75 15A0.25 0.25 0 0 1 4 15.25L4 15.75A0.25 0.25 0 0 1 3.75 16L0.25 16A0.25 0.25 0 0 0 0 16.25L0 18.75A0.25 0.25 0 0 0 0.25 19L0.75 19A0.25 0.25 0 0 1 1 19.25L1 19.75A0.25 0.25 0 0 1 0.75 20L0.25 20A0.25 0.25 0 0 0 0 20.25L0 20.75A0.25 0.25 0 0 0 0.25 21L0.75 21A0.25 0.25 0 0 1 1 21.25L1 21.75A0.25 0.25 0 0 0 1.25 22L2.75 22A0.25 0.25 0 0 1 3 22.25L3 23.75A0.25 0.25 0 0 1 2.75 24L1.25 24A0.25 0.25 0 0 0 1 24.25L1 24.75A0.25 0.25 0 0 1 0.75 25L0.25 25A0.25 0.25 0 0 0 0 25.25L0 25.75A0.25 0.25 0 0 0 0.25 26L0.75 26A0.25 0.25 0 0 1 1 26.25L1 26.75A0.25 0.25 0 0 0 1.25 27L1.75 27A0.25 0.25 0 0 1 2 27.25L2 27.75A0.25 0.25 0 0 1 1.75 28L0.25 28A0.25 0.25 0 0 0 0 28.25L0 28.75A0.25 0.25 0 0 0 0.25 29L1.75 29A0.25 0.25 0 0 1 2 29.25L2 29.75A0.25 0.25 0 0 0 2.25 30L5.75 30A0.25 0.25 0 0 1 6 30.25L6 30.75A0.25 0.25 0 0 1 5.75 31L4.25 31A0.25 0.25 0 0 0 4 31.25L4 31.75A0.25 0.25 0 0 1 3.75 32L3.25 32A0.25 0.25 0 0 0 3 32.25L3 32.75A0.25 0.25 0 0 0 3.25 33L3.75 33A0.25 0.25 0 0 0 4 32.75L4 32.25A0.25 0.25 0 0 1 4.25 32L4.75 32A0.25 0.25 0 0 1 5 32.25L5 32.75A0.25 0.25 0 0 0 5.25 33L7.75 33A0.25 0.25 0 0 1 8 33.25L8 33.75A0.25 0.25 0 0 0 8.25 34L8.75 34A0.25 0.25 0 0 0 9 33.75L9 33.25A0.25 0.25 0 0 1 9.25 33L9.75 33A0.25 0.25 0 0 1 10 33.25L10 33.75A0.25 0.25 0 0 0 10.25 34L10.75 34A0.25 0.25 0 0 1 11 34.25L11 34.75A0.25 0.25 0 0 1 10.75 35L9.25 35A0.25 0.25 0 0 0 9 35.25L9 36.75A0.25 0.25 0 0 1 8.75 37L8.25 37A0.25 0.25 0 0 0 8 37.25L8 40.75A0.25 0.25 0 0 0 8.25 41L10.75 41A0.25 0.25 0 0 0 11 40.75L11 40.25A0.25 0.25 0 0 1 11.25 40L11.75 40A0.25 0.25 0 0 0 12 39.75L12 38.25A0.25 0.25 0 0 1 12.25 38L12.75 38A0.25 0.25 0 0 1 13 38.25L13 38.75A0.25 0.25 0 0 0 13.25 39L15.75 39A0.25 0.25 0 0 1 16 39.25L16 39.75A0.25 0.25 0 0 1 15.75 40L15.25 40A0.25 0.25 0 0 0 15 40.25L15 40.75A0.25 0.25 0 0 0 15.25 41L16.75 41A0.25 0.25 0 0 0 17 40.75L17 37.25A0.25 0.25 0 0 0 16.75 37L16.25 37A0.25 0.25 0 0 1 16 36.75L16 35.25A0.25 0.25 0 0 1 16.25 35L17.75 35A0.25 0.25 0 0 1 18 35.25L18 37.75A0.25 0.25 0 0 0 18.25 38L18.75 38A0.25 0.25 0 0 1 19 38.25L19 39.75A0.25 0.25 0 0 1 18.75 40L18.25 40A0.25 0.25 0 0 0 18 40.25L18 40.75A0.25 0.25 0 0 0 18.25 41L19.75 41A0.25 0.25 0 0 0 20 40.75L20 40.25A0.25 0.25 0 0 1 20.25 40L21.75 40A0.25 0.25 0 0 1 22 40.25L22 40.75A0.25 0.25 0 0 0 22.25 41L22.75 41A0.25 0.25 0 0 0 23 40.75L23 40.25A0.25 0.25 0 0 1 23.25 40L23.75 40A0.25 0.25 0 0 1 24 40.25L24 40.75A0.25 0.25 0 0 0 24.25 41L25.75 41A0.25 0.25 0 0 0 26 40.75L26 40.25A0.25 0.25 0 0 1 26.25 40L26.75 40A0.25 0.25 0 0 1 27 40.25L27 40.75A0.25 0.25 0 0 0 27.25 41L28.75 41A0.25 0.25 0 0 0 29 40.75L29 40.25A0.25 0.25 0 0 0 28.75 40L27.25 40A0.25 0.25 0 0 1 27 39.75L27 38.25A0.25 0.25 0 0 1 27.25 38L28.75 38A0.25 0.25 0 0 1 29 38.25L29 38.75A0.25 0.25 0 0 0 29.25 39L29.75 39A0.25 0.25 0 0 0 30 38.75L30 36.25A0.25 0.25 0 0 0 29.75 36L27.25 36A0.25 0.25 0 0 1 27 35.75L27 34.25A0.25 0.25 0 0 0 26.75 34L26.25 34A0.25 0.25 0 0 1 26 33.75L26 33.25A0.25 0.25 0 0 1 26.25 33L26.75 33A0.25 0.25 0 0 0 27 32.75L27 31.25A0.25 0.25 0 0 1 27.25 31L27.75 31A0.25 0.25 0 0 1 28 31.25L28 31.75A0.25 0.25 0 0 0 28.25 32L28.75 32A0.25 0.25 0 0 1 29 32.25L29 32.75A0.25 0.25 0 0 1 28.75 33L28.25 33A0.25 0.25 0 0 0 28 33.25L28 34.75A0.25 0.25 0 0 0 28.25 35L31.75 35A0.25 0.25 0 0 1 32 35.25L32 36.75A0.25 0.25 0 0 1 31.75 37L31.25 37A0.25 0.25 0 0 0 31 37.25L31 37.75A0.25 0.25 0 0 0 31.25 38L31.75 38A0.25 0.25 0 0 1 32 38.25L32 38.75A0.25 0.25 0 0 0 32.25 39L32.75 39A0.25 0.25 0 0 1 33 39.25L33 39.75A0.25 0.25 0 0 1 32.75 40L30.25 40A0.25 0.25 0 0 0 30 40.25L30 40.75A0.25 0.25 0 0 0 30.25 41L34.75 41A0.25 0.25 0 0 0 35 40.75L35 40.25A0.25 0.25 0 0 1 35.25 40L35.75 40A0.25 0.25 0 0 1 36 40.25L36 40.75A0.25 0.25 0 0 0 36.25 41L37.75 41A0.25 0.25 0 0 0 38 40.75L38 39.25A0.25 0.25 0 0 1 38.25 39L38.75 39A0.25 0.25 0 0 1 39 39.25L39 40.75A0.25 0.25 0 0 0 39.25 41L39.75 41A0.25 0.25 0 0 0 40 40.75L40 39.25A0.25 0.25 0 0 1 40.25 39L40.75 39A0.25 0.25 0 0 0 41 38.75L41 35.25A0.25 0.25 0 0 0 40.75 35L40.25 35A0.25 0.25 0 0 1 40 34.75L40 33.25A0.25 0.25 0 0 1 40.25 33L40.75 33A0.25 0.25 0 0 0 41 32.75L41 32.25A0.25 0.25 0 0 0 40.75 32L39.25 32A0.25 0.25 0 0 1 39 31.75L39 31.25A0.25 0.25 0 0 0 38.75 31L37.25 31A0.25 0.25 0 0 0 37 31.25L37 31.75A0.25 0.25 0 0 1 36.75 32L33.25 32A0.25 0.25 0 0 1 33 31.75L33 31.25A0.25 0.25 0 0 1 33.25 31L35.75 31A0.25 0.25 0 0 0 36 30.75L36 27.25A0.25 0.25 0 0 0 35.75 27L34.25 27A0.25 0.25 0 0 1 34 26.75L34 26.25A0.25 0.25 0 0 1 34.25 26L34.75 26A0.25 0.25 0 0 0 35 25.75L35 25.25A0.25 0.25 0 0 0 34.75 25L34.25 25A0.25 0.25 0 0 0 34 25.25L34 25.75A0.25 0.25 0 0 1 33.75 26L32.25 26A0.25 0.25 0 0 1 32 25.75L32 25.25A0.25 0.25 0 0 1 32.25 25L32.75 25A0.25 0.25 0 0 0 33 24.75L33 24.25A0.25 0.25 0 0 0 32.75 24L32.25 24A0.25 0.25 0 0 1 32 23.75L32 23.25A0.25 0.25 0 0 0 31.75 23L31.25 23A0.25 0.25 0 0 0 31 23.25L31 23.75A0.25 0.25 0 0 1 30.75 24L29.25 24A0.25 0.25 0 0 0 29 24.25L29 24.75A0.25 0.25 0 0 1 28.75 25L27.25 25A0.25 0.25 0 0 1 27 24.75L27 23.25A0.25 0.25 0 0 0 26.75 23L26.25 23A0.25 0.25 0 0 1 26 22.75L26 21.25A0.25 0.25 0 0 1 26.25 21L26.75 21A0.25 0.25 0 0 1 27 21.25L27 21.75A0.25 0.25 0 0 0 27.25 22L27.75 22A0.25 0.25 0 0 1 28 22.25L28 22.75A0.25 0.25 0 0 0 28.25 23L29.75 23A0.25 0.25 0 0 0 30 22.75L30 22.25A0.25 0.25 0 0 1 30.25 22L30.75 22A0.25 0.25 0 0 0 31 21.75L31 21.25A0.25 0.25 0 0 1 31.25 21L31.75 21A0.25 0.25 0 0 1 32 21.25L32 21.75A0.25 0.25 0 0 0 32.25 22L32.75 22A0.25 0.25 0 0 1 33 22.25L33 22.75A0.25 0.25 0 0 0 33.25 23L33.75 23A0.25 0.25 0 0 1 34 23.25L34 23.75A0.25 0.25 0 0 0 34.25 24L36.75 24A0.25 0.25 0 0 1 37 24.25L37 24.75A0.25 0.25 0 0 0 37.25 25L37.75 25A0.25 0.25 0 0 0 38 24.75L38 24.25A0.25 0.25 0 0 0 37.75 24L37.25 24A0.25 0.25 0 0 1 37 23.75L37 23.25A0.25 0.25 0 0 1 37.25 23L39.75 23A0.25 0.25 0 0 1 40 23.25L40 23.75A0.25 0.25 0 0 1 39.75 24L39.25 24A0.25 0.25 0 0 0 39 24.25L39 24.75A0.25 0.25 0 0 0 39.25 25L40.75 25A0.25 0.25 0 0 0 41 24.75L41 23.25A0.25 0.25 0 0 0 40.75 23L40.25 23A0.25 0.25 0 0 1 40 22.75L40 22.25A0.25 0.25 0 0 1 40.25 22L40.75 22A0.25 0.25 0 0 0 41 21.75L41 19.25A0.25 0.25 0 0 0 40.75 19L38.25 19A0.25 0.25 0 0 0 38 19.25L38 20.75A0.25 0.25 0 0 1 37.75 21L36.25 21A0.25 0.25 0 0 1 36 20.75L36 20.25A0.25 0.25 0 0 1 36.25 20L36.75 20A0.25 0.25 0 0 0 37 19.75L37 19.25A0.25 0.25 0 0 0 36.75 19L36.25 19A0.25 0.25 0 0 1 36 18.75L36 17.25A0.25 0.25 0 0 1 36.25 17L36.75 17A0.25 0.25 0 0 1 37 17.25L37 17.75A0.25 0.25 0 0 0 37.25 18L37.75 18A0.25 0.25 0 0 0 38 17.75L38 17.25A0.25 0.25 0 0 1 38.25 17L39.75 17A0.25 0.25 0 0 1 40 17.25L40 17.75A0.25 0.25 0 0 0 40.25 18L40.75 18A0.25 0.25 0 0 0 41 17.75L41 17.25A0.25 0.25 0 0 0 40.75 17L40.25 17A0.25 0.25 0 0 1 40 16.75L40 15.25A0.25 0.25 0 0 1 40.25 15L40.75 15A0.25 0.25 0 0 0 41 14.75L41 13.25A0.25 0.25 0 0 0 40.75 13L40.25 13A0.25 0.25 0 0 1 40 12.75L40 12.25A0.25 0.25 0 0 1 40.25 12L40.75 12A0.25 0.25 0 0 0 41 11.75L41 11.25A0.25 0.25 0 0 0 40.75 11L40.25 11A0.25 0.25 0 0 1 40 10.75L40 10.25A0.25 0.25 0 0 1 40.25 10L40.75 10A0.25 0.25 0 0 0 41 9.75L41 8.25A0.25 0.25 0 0 0 40.75 8L40.25 8A0.25 0.25 0 0 0 40 8.25L40 9.75A0.25 0.25 0 0 1 39.75 10L38.25 10A0.25 0.25 0 0 1 38 9.75L38 9.25A0.25 0.25 0 0 1 38.25 9L38.75 9A0.25 0.25 0 0 0 39 8.75L39 8.25A0.25 0.25 0 0 0 38.75 8L36.25 8A0.25 0.25 0 0 0 36 8.25L36 8.75A0.25 0.25 0 0 1 35.75 9L34.25 9A0.25 0.25 0 0 1 34 8.75L34 8.25A0.25 0.25 0 0 0 33.75 8L33.25 8A0.25 0.25 0 0 1 33 7.75L33 6.25A0.25 0.25 0 0 0 32.75 6L32.25 6A0.25 0.25 0 0 1 32 5.75L32 5.25A0.25 0.25 0 0 0 31.75 5L31.25 5A0.25 0.25 0 0 1 31 4.75L31 4.25A0.25 0.25 0 0 1 31.25 4L31.75 4A0.25 0.25 0 0 0 32 3.75L32 2.25A0.25 0.25 0 0 1 32.25 2L32.75 2A0.25 0.25 0 0 0 33 1.75L33 1.25A0.25 0.25 0 0 0 32.75 1L32.25 1A0.25 0.25 0 0 1 32 0.75L32 0.25A0.25 0.25 0 0 0 31.75 0L31.25 0A0.25 0.25 0 0 0 31 0.25L31 0.75A0.25 0.25 0 0 0 31.25 1L31.75 1A0.25 0.25 0 0 1 32 1.25L32 1.75A0.25 0.25 0 0 1 31.75 2L30.25 2A0.25 0.25 0 0 1 30 1.75L30 1.25A0.25 0.25 0 0 0 29.75 1L29.25 1A0.25 0.25 0 0 1 29 0.75L29 0.25A0.25 0.25 0 0 0 28.75 0L28.25 0A0.25 0.25 0 0 0 28 0.25L28 3.75A0.25 0.25 0 0 1 27.75 4L27.25 4A0.25 0.25 0 0 1 27 3.75L27 3.25A0.25 0.25 0 0 0 26.75 3L26.25 3A0.25 0.25 0 0 1 26 2.75L26 2.25A0.25 0.25 0 0 0 25.75 2L24.25 2A0.25 0.25 0 0 1 24 1.75L24 0.25A0.25 0.25 0 0 0 23.75 0L23.25 0A0.25 0.25 0 0 0 23 0.25L23 0.75A0.25 0.25 0 0 1 22.75 1L22.25 1A0.25 0.25 0 0 1 22 0.75L22 0.25A0.25 0.25 0 0 0 21.75 0L16.25 0A0.25 0.25 0 0 0 16 0.25L16 1.75A0.25 0.25 0 0 1 15.75 2L15.25 2A0.25 0.25 0 0 1 15 1.75L15 0.25A0.25 0.25 0 0 0 14.75 0L14.25 0A0.25 0.25 0 0 0 14 0.25L14 1.75A0.25 0.25 0 0 1 13.75 2L12.25 2A0.25 0.25 0 0 1 12 1.75L12 1.25A0.25 0.25 0 0 1 12.25 1L12.75 1A0.25 0.25 0 0 0 13 0.75L13 0.25A0.25 0.25 0 0 0 12.75 0L12.25 0A0.25 0.25 0 0 0 12 0.25L12 0.75A0.25 0.25 0 0 1 11.75 1L11.25 1A0.25 0.25 0 0 1 11 0.75L11 0.25A0.25 0.25 0 0 0 10.75 0L10.25 0A0.25 0.25 0 0 0 10 0.25ZM26 0.25L26 0.75A0.25 0.25 0 0 0 26.25 1L26.75 1A0.25 0.25 0 0 0 27 0.75L27 0.25A0.25 0.25 0 0 0 26.75 0L26.25 0A0.25 0.25 0 0 0 26 0.25ZM19 1.25L19 2.75A0.25 0.25 0 0 0 19.25 3L19.75 3A0.25 0.25 0 0 0 20 2.75L20 2.25A0.25 0.25 0 0 1 20.25 2L20.75 2A0.25 0.25 0 0 1 21 2.25L21 3.75A0.25 0.25 0 0 0 21.25 4L21.75 4A0.25 0.25 0 0 1 22 4.25L22 4.75A0.25 0.25 0 0 1 21.75 5L21.25 5A0.25 0.25 0 0 0 21 5.25L21 6.75A0.25 0.25 0 0 1 20.75 7L20.25 7A0.25 0.25 0 0 1 20 6.75L20 6.25A0.25 0.25 0 0 0 19.75 6L19.25 6A0.25 0.25 0 0 0 19 6.25L19 6.75A0.25 0.25 0 0 1 18.75 7L18.25 7A0.25 0.25 0 0 1 18 6.75L18 6.25A0.25 0.25 0 0 0 17.75 6L17.25 6A0.25 0.25 0 0 0 17 6.25L17 6.75A0.25 0.25 0 0 0 17.25 7L17.75 7A0.25 0.25 0 0 1 18 7.25L18 8.75A0.25 0.25 0 0 0 18.25 9L20.75 9A0.25 0.25 0 0 1 21 9.25L21 9.75A0.25 0.25 0 0 1 20.75 10L19.25 10A0.25 0.25 0 0 0 19 10.25L19 10.75A0.25 0.25 0 0 1 18.75 11L18.25 11A0.25 0.25 0 0 0 18 11.25L18 11.75A0.25 0.25 0 0 1 17.75 12L17.25 12A0.25 0.25 0 0 0 17 12.25L17 12.75A0.25 0.25 0 0 1 16.75 13L15.25 13A0.25 0.25 0 0 0 15 13.25L15 14.75A0.25 0.25 0 0 0 15.25 15L15.75 15A0.25 0.25 0 0 1 16 15.25L16 15.75A0.25 0.25 0 0 1 15.75 16L14.25 16A0.25 0.25 0 0 1 14 15.75L14 15.25A0.25 0.25 0 0 0 13.75 15L13.25 15A0.25 0.25 0 0 0 13 15.25L13 16.75A0.25 0.25 0 0 0 13.25 17L13.75 17A0.25 0.25 0 0 1 14 17.25L14 17.75A0.25 0.25 0 0 1 13.75 18L10.25 18A0.25 0.25 0 0 1 10 17.75L10 15.25A0.25 0.25 0 0 1 10.25 15L10.75 15A0.25 0.25 0 0 1 11 15.25L11 15.75A0.25 0.25 0 0 0 11.25 16L11.75 16A0.25 0.25 0 0 0 12 15.75L12 14.25A0.25 0.25 0 0 0 11.75 14L10.25 14A0.25 0.25 0 0 1 10 13.75L10 13.25A0.25 0.25 0 0 0 9.75 13L9.25 13A0.25 0.25 0 0 1 9 12.75L9 10.25A0.25 0.25 0 0 0 8.75 10L8.25 10A0.25 0.25 0 0 0 8 10.25L8 10.75A0.25 0.25 0 0 1 7.75 11L5.25 11A0.25 0.25 0 0 0 5 11.25L5 11.75A0.25 0.25 0 0 1 4.75 12L2.25 12A0.25 0.25 0 0 0 2 12.25L2 12.75A0.25 0.25 0 0 0 2.25 13L3.75 13A0.25 0.25 0 0 1 4 13.25L4 13.75A0.25 0.25 0 0 0 4.25 14L4.75 14A0.25 0.25 0 0 0 5 13.75L5 12.25A0.25 0.25 0 0 1 5.25 12L6.75 12A0.25 0.25 0 0 1 7 12.25L7 12.75A0.25 0.25 0 0 1 6.75 13L6.25 13A0.25 0.25 0 0 0 6 13.25L6 13.75A0.25 0.25 0 0 0 6.25 14L6.75 14A0.25 0.25 0 0 1 7 14.25L7 14.75A0.25 0.25 0 0 1 6.75 15L5.25 15A0.25 0.25 0 0 0 5 15.25L5 15.75A0.25 0.25 0 0 1 4.75 16L4.25 16A0.25 0.25 0 0 0 4 16.25L4 17.75A0.25 0.25 0 0 1 3.75 18L2.25 18A0.25 0.25 0 0 1 2 17.75L2 17.25A0.25 0.25 0 0 0 1.75 17L1.25 17A0.25 0.25 0 0 0 1 17.25L1 17.75A0.25 0.25 0 0 0 1.25 18L1.75 18A0.25 0.25 0 0 1 2 18.25L2 19.75A0.25 0.25 0 0 0 2.25 20L2.75 20A0.25 0.25 0 0 0 3 19.75L3 19.25A0.25 0.25 0 0 1 3.25 19L3.75 19A0.25 0.25 0 0 1 4 19.25L4 19.75A0.25 0.25 0 0 0 4.25 20L4.75 20A0.25 0.25 0 0 1 5 20.25L5 20.75A0.25 0.25 0 0 1 4.75 21L4.25 21A0.25 0.25 0 0 0 4 21.25L4 21.75A0.25 0.25 0 0 0 4.25 22L6.75 22A0.25 0.25 0 0 1 7 22.25L7 22.75A0.25 0.25 0 0 1 6.75 23L6.25 23A0.25 0.25 0 0 0 6 23.25L6 23.75A0.25 0.25 0 0 1 5.75 24L5.25 24A0.25 0.25 0 0 1 5 23.75L5 23.25A0.25 0.25 0 0 0 4.75 23L4.25 23A0.25 0.25 0 0 0 4 23.25L4 23.75A0.25 0.25 0 0 1 3.75 24L3.25 24A0.25 0.25 0 0 0 3 24.25L3 24.75A0.25 0.25 0 0 0 3.25 25L3.75 25A0.25 0.25 0 0 0 4 24.75L4 24.25A0.25 0.25 0 0 1 4.25 24L4.75 24A0.25 0.25 0 0 1 5 24.25L5 24.75A0.25 0.25 0 0 0 5.25 25L5.75 25A0.25 0.25 0 0 1 6 25.25L6 25.75A0.25 0.25 0 0 1 5.75 26L5.25 26A0.25 0.25 0 0 0 5 26.25L5 26.75A0.25 0.25 0 0 1 4.75 27L3.25 27A0.25 0.25 0 0 1 3 26.75L3 26.25A0.25 0.25 0 0 0 2.75 26L2.25 26A0.25 0.25 0 0 1 2 25.75L2 25.25A0.25 0.25 0 0 0 1.75 25L1.25 25A0.25 0.25 0 0 0 1 25.25L1 25.75A0.25 0.25 0 0 0 1.25 26L1.75 26A0.25 0.25 0 0 1 2 26.25L2 26.75A0.25 0.25 0 0 0 2.25 27L2.75 27A0.25 0.25 0 0 1 3 27.25L3 27.75A0.25 0.25 0 0 0 3.25 28L3.75 28A0.25 0.25 0 0 1 4 28.25L4 28.75A0.25 0.25 0 0 0 4.25 29L4.75 29A0.25 0.25 0 0 0 5 28.75L5 28.25A0.25 0.25 0 0 1 5.25 28L6.75 28A0.25 0.25 0 0 1 7 28.25L7 28.75A0.25 0.25 0 0 1 6.75 29L6.25 29A0.25 0.25 0 0 0 6 29.25L6 29.75A0.25 0.25 0 0 0 6.25 30L6.75 30A0.25 0.25 0 0 0 7 29.75L7 29.25A0.25 0.25 0 0 1 7.25 29L7.75 29A0.25 0.25 0 0 1 8 29.25L8 29.75A0.25 0.25 0 0 0 8.25 30L8.75 30A0.25 0.25 0 0 1 9 30.25L9 31.75A0.25 0.25 0 0 0 9.25 32L9.75 32A0.25 0.25 0 0 1 10 32.25L10 32.75A0.25 0.25 0 0 0 10.25 33L11.75 33A0.25 0.25 0 0 1 12 33.25L12 33.75A0.25 0.25 0 0 0 12.25 34L12.75 34A0.25 0.25 0 0 1 13 34.25L13 34.75A0.25 0.25 0 0 0 13.25 35L13.75 35A0.25 0.25 0 0 0 14 34.75L14 32.25A0.25 0.25 0 0 1 14.25 32L14.75 32A0.25 0.25 0 0 1 15 32.25L15 34.75A0.25 0.25 0 0 0 15.25 35L15.75 35A0.25 0.25 0 0 0 16 34.75L16 34.25A0.25 0.25 0 0 1 16.25 34L17.75 34A0.25 0.25 0 0 1 18 34.25L18 34.75A0.25 0.25 0 0 0 18.25 35L18.75 35A0.25 0.25 0 0 1 19 35.25L19 35.75A0.25 0.25 0 0 0 19.25 36L19.75 36A0.25 0.25 0 0 0 20 35.75L20 35.25A0.25 0.25 0 0 1 20.25 35L20.75 35A0.25 0.25 0 0 1 21 35.25L21 38.75A0.25 0.25 0 0 0 21.25 39L23.75 39A0.25 0.25 0 0 1 24 39.25L24 39.75A0.25 0.25 0 0 0 24.25 40L25.75 40A0.25 0.25 0 0 0 26 39.75L26 39.25A0.25 0.25 0 0 0 25.75 39L25.25 39A0.25 0.25 0 0 1 25 38.75L25 38.25A0.25 0.25 0 0 1 25.25 38L25.75 38A0.25 0.25 0 0 0 26 37.75L26 36.25A0.25 0.25 0 0 0 25.75 36L25.25 36A0.25 0.25 0 0 1 25 35.75L25 35.25A0.25 0.25 0 0 1 25.25 35L25.75 35A0.25 0.25 0 0 0 26 34.75L26 34.25A0.25 0.25 0 0 0 25.75 34L25.25 34A0.25 0.25 0 0 0 25 34.25L25 34.75A0.25 0.25 0 0 1 24.75 35L24.25 35A0.25 0.25 0 0 0 24 35.25L24 35.75A0.25 0.25 0 0 1 23.75 36L23.25 36A0.25 0.25 0 0 0 23 36.25L23 36.75A0.25 0.25 0 0 1 22.75 37L22.25 37A0.25 0.25 0 0 1 22 36.75L22 34.25A0.25 0.25 0 0 1 22.25 34L22.75 34A0.25 0.25 0 0 0 23 33.75L23 33.25A0.25 0.25 0 0 1 23.25 33L25.75 33A0.25 0.25 0 0 0 26 32.75L26 31.25A0.25 0.25 0 0 1 26.25 31L26.75 31A0.25 0.25 0 0 0 27 30.75L27 30.25A0.25 0.25 0 0 1 27.25 30L27.75 30A0.25 0.25 0 0 1 28 30.25L28 30.75A0.25 0.25 0 0 0 28.25 31L28.75 31A0.25 0.25 0 0 0 29 30.75L29 28.25A0.25 0.25 0 0 1 29.25 28L30.75 28A0.25 0.25 0 0 1 31 28.25L31 29.75A0.25 0.25 0 0 1 30.75 30L30.25 30A0.25 0.25 0 0 0 30 30.25L30 30.75A0.25 0.25 0 0 0 30.25 31L30.75 31A0.25 0.25 0 0 1 31 31.25L31 31.75A0.25 0.25 0 0 0 31.25 32L31.75 32A0.25 0.25 0 0 0 32 31.75L32 29.25A0.25 0.25 0 0 1 32.25 29L32.75 29A0.25 0.25 0 0 0 33 28.75L33 28.25A0.25 0.25 0 0 1 33.25 28L33.75 28A0.25 0.25 0 0 1 34 28.25L34 28.75A0.25 0.25 0 0 0 34.25 29L34.75 29A0.25 0.25 0 0 0 35 28.75L35 28.25A0.25 0.25 0 0 0 34.75 28L34.25 28A0.25 0.25 0 0 1 34 27.75L34 27.25A0.25 0.25 0 0 0 33.75 27L32.25 27A0.25 0.25 0 0 0 32 27.25L32 27.75A0.25 0.25 0 0 1 31.75 28L31.25 28A0.25 0.25 0 0 1 31 27.75L31 27.25A0.25 0.25 0 0 0 30.75 27L30.25 27A0.25 0.25 0 0 1 30 26.75L30 26.25A0.25 0.25 0 0 1 30.25 26L30.75 26A0.25 0.25 0 0 0 31 25.75L31 25.25A0.25 0.25 0 0 0 30.75 25L29.25 25A0.25 0.25 0 0 0 29 25.25L29 25.75A0.25 0.25 0 0 1 28.75 26L27.25 26A0.25 0.25 0 0 1 27 25.75L27 25.25A0.25 0.25 0 0 0 26.75 25L25.25 25A0.25 0.25 0 0 1 25 24.75L25 23.25A0.25 0.25 0 0 0 24.75 23L23.25 23A0.25 0.25 0 0 1 23 22.75L23 21.25A0.25 0.25 0 0 1 23.25 21L23.75 21A0.25 0.25 0 0 1 24 21.25L24 21.75A0.25 0.25 0 0 0 24.25 22L24.75 22A0.25 0.25 0 0 0 25 21.75L25 21.25A0.25 0.25 0 0 0 24.75 21L24.25 21A0.25 0.25 0 0 1 24 20.75L24 18.25A0.25 0.25 0 0 0 23.75 18L23.25 18A0.25 0.25 0 0 0 23 18.25L23 19.75A0.25 0.25 0 0 1 22.75 20L22.25 20A0.25 0.25 0 0 1 22 19.75L22 17.25A0.25 0.25 0 0 0 21.75 17L21.25 17A0.25 0.25 0 0 0 21 17.25L21 17.75A0.25 0.25 0 0 1 20.75 18L20.25 18A0.25 0.25 0 0 1 20 17.75L20 16.25A0.25 0.25 0 0 1 20.25 16L20.75 16A0.25 0.25 0 0 0 21 15.75L21 15.25A0.25 0.25 0 0 1 21.25 15L21.75 15A0.25 0.25 0 0 1 22 15.25L22 15.75A0.25 0.25 0 0 0 22.25 16L22.75 16A0.25 0.25 0 0 1 23 16.25L23 16.75A0.25 0.25 0 0 0 23.25 17L24.75 17A0.25 0.25 0 0 1 25 17.25L25 17.75A0.25 0.25 0 0 0 25.25 18L25.75 18A0.25 0.25 0 0 1 26 18.25L26 18.75A0.25 0.25 0 0 1 25.75 19L25.25 19A0.25 0.25 0 0 0 25 19.25L25 19.75A0.25 0.25 0 0 0 25.25 20L25.75 20A0.25 0.25 0 0 0 26 19.75L26 19.25A0.25 0.25 0 0 1 26.25 19L26.75 19A0.25 0.25 0 0 0 27 18.75L27 17.25A0.25 0.25 0 0 1 27.25 17L27.75 17A0.25 0.25 0 0 1 28 17.25L28 17.75A0.25 0.25 0 0 0 28.25 18L28.75 18A0.25 0.25 0 0 0 29 17.75L29 17.25A0.25 0.25 0 0 1 29.25 17L30.75 17A0.25 0.25 0 0 1 31 17.25L31 17.75A0.25 0.25 0 0 1 30.75 18L30.25 18A0.25 0.25 0 0 0 30 18.25L30 18.75A0.25 0.25 0 0 0 30.25 19L30.75 19A0.25 0.25 0 0 1 31 19.25L31 19.75A0.25 0.25 0 0 0 31.25 20L31.75 20A0.25 0.25 0 0 1 32 20.25L32 20.75A0.25 0.25 0 0 0 32.25 21L32.75 21A0.25 0.25 0 0 0 33 20.75L33 20.25A0.25 0.25 0 0 1 33.25 20L35.75 20A0.25 0.25 0 0 0 36 19.75L36 19.25A0.25 0.25 0 0 0 35.75 19L35.25 19A0.25 0.25 0 0 1 35 18.75L35 15.25A0.25 0.25 0 0 1 35.25 15L36.75 15A0.25 0.25 0 0 0 37 14.75L37 14.25A0.25 0.25 0 0 1 37.25 14L37.75 14A0.25 0.25 0 0 1 38 14.25L38 15.75A0.25 0.25 0 0 1 37.75 16L37.25 16A0.25 0.25 0 0 0 37 16.25L37 16.75A0.25 0.25 0 0 0 37.25 17L37.75 17A0.25 0.25 0 0 0 38 16.75L38 16.25A0.25 0.25 0 0 1 38.25 16L38.75 16A0.25 0.25 0 0 0 39 15.75L39 13.25A0.25 0.25 0 0 0 38.75 13L37.25 13A0.25 0.25 0 0 1 37 12.75L37 12.25A0.25 0.25 0 0 1 37.25 12L38.75 12A0.25 0.25 0 0 0 39 11.75L39 11.25A0.25 0.25 0 0 0 38.75 11L38.25 11A0.25 0.25 0 0 1 38 10.75L38 10.25A0.25 0.25 0 0 0 37.75 10L37.25 10A0.25 0.25 0 0 0 37 10.25L37 10.75A0.25 0.25 0 0 1 36.75 11L36.25 11A0.25 0.25 0 0 1 36 10.75L36 10.25A0.25 0.25 0 0 0 35.75 10L35.25 10A0.25 0.25 0 0 0 35 10.25L35 10.75A0.25 0.25 0 0 1 34.75 11L34.25 11A0.25 0.25 0 0 0 34 11.25L34 12.75A0.25 0.25 0 0 0 34.25 13L34.75 13A0.25 0.25 0 0 1 35 13.25L35 14.75A0.25 0.25 0 0 1 34.75 15L34.25 15A0.25 0.25 0 0 1 34 14.75L34 14.25A0.25 0.25 0 0 0 33.75 14L33.25 14A0.25 0.25 0 0 1 33 13.75L33 11.25A0.25 0.25 0 0 0 32.75 11L32.25 11A0.25 0.25 0 0 1 32 10.75L32 10.25A0.25 0.25 0 0 1 32.25 10L32.75 10A0.25 0.25 0 0 0 33 9.75L33 9.25A0.25 0.25 0 0 0 32.75 9L32.25 9A0.25 0.25 0 0 1 32 8.75L32 8.25A0.25 0.25 0 0 0 31.75 8L31.25 8A0.25 0.25 0 0 1 31 7.75L31 7.25A0.25 0.25 0 0 1 31.25 7L31.75 7A0.25 0.25 0 0 0 32 6.75L32 6.25A0.25 0.25 0 0 0 31.75 6L31.25 6A0.25 0.25 0 0 1 31 5.75L31 5.25A0.25 0.25 0 0 0 30.75 5L26.25 5A0.25 0.25 0 0 1 26 4.75L26 3.25A0.25 0.25 0 0 0 25.75 3L24.25 3A0.25 0.25 0 0 1 24 2.75L24 2.25A0.25 0.25 0 0 0 23.75 2L23.25 2A0.25 0.25 0 0 0 23 2.25L23 2.75A0.25 0.25 0 0 0 23.25 3L23.75 3A0.25 0.25 0 0 1 24 3.25L24 3.75A0.25 0.25 0 0 0 24.25 4L24.75 4A0.25 0.25 0 0 1 25 4.25L25 4.75A0.25 0.25 0 0 0 25.25 5L25.75 5A0.25 0.25 0 0 1 26 5.25L26 5.75A0.25 0.25 0 0 1 25.75 6L25.25 6A0.25 0.25 0 0 0 25 6.25L25 7.75A0.25 0.25 0 0 1 24.75 8L24.25 8A0.25 0.25 0 0 0 24 8.25L24 9.75A0.25 0.25 0 0 0 24.25 10L24.75 10A0.25 0.25 0 0 1 25 10.25L25 10.75A0.25 0.25 0 0 1 24.75 11L21.25 11A0.25 0.25 0 0 1 21 10.75L21 10.25A0.25 0.25 0 0 1 21.25 10L22.75 10A0.25 0.25 0 0 0 23 9.75L23 8.25A0.25 0.25 0 0 0 22.75 8L22.25 8A0.25 0.25 0 0 1 22 7.75L22 5.25A0.25 0.25 0 0 1 22.25 5L22.75 5A0.25 0.25 0 0 1 23 5.25L23 6.75A0.25 0.25 0 0 0 23.25 7L23.75 7A0.25 0.25 0 0 0 24 6.75L24 5.25A0.25 0.25 0 0 0 23.75 5L23.25 5A0.25 0.25 0 0 1 23 4.75L23 4.25A0.25 0.25 0 0 0 22.75 4L22.25 4A0.25 0.25 0 0 1 22 3.75L22 1.25A0.25 0.25 0 0 0 21.75 1L19.25 1A0.25 0.25 0 0 0 19 1.25ZM10 2.25L10 3.75A0.25 0.25 0 0 0 10.25 4L10.75 4A0.25 0.25 0 0 1 11 4.25L11 4.75A0.25 0.25 0 0 0 11.25 5L11.75 5A0.25 0.25 0 0 1 12 5.25L12 5.75A0.25 0.25 0 0 1 11.75 6L11.25 6A0.25 0.25 0 0 0 11 6.25L11 6.75A0.25 0.25 0 0 0 11.25 7L11.75 7A0.25 0.25 0 0 0 12 6.75L12 6.25A0.25 0.25 0 0 1 12.25 6L12.75 6A0.25 0.25 0 0 0 13 5.75L13 5.25A0.25 0.25 0 0 1 13.25 5L15.75 5A0.25 0.25 0 0 0 16 4.75L16 4.25A0.25 0.25 0 0 1 16.25 4L17.75 4A0.25 0.25 0 0 1 18 4.25L18 4.75A0.25 0.25 0 0 0 18.25 5L18.75 5A0.25 0.25 0 0 0 19 4.75L19 4.25A0.25 0.25 0 0 0 18.75 4L18.25 4A0.25 0.25 0 0 1 18 3.75L18 2.25A0.25 0.25 0 0 0 17.75 2L17.25 2A0.25 0.25 0 0 0 17 2.25L17 2.75A0.25 0.25 0 0 1 16.75 3L11.25 3A0.25 0.25 0 0 1 11 2.75L11 2.25A0.25 0.25 0 0 0 10.75 2L10.25 2A0.25 0.25 0 0 0 10 2.25ZM29 2.25L29 2.75A0.25 0.25 0 0 0 29.25 3L29.75 3A0.25 0.25 0 0 0 30 2.75L30 2.25A0.25 0.25 0 0 0 29.75 2L29.25 2A0.25 0.25 0 0 0 29 2.25ZM12 4.25L12 4.75A0.25 0.25 0 0 0 12.25 5L12.75 5A0.25 0.25 0 0 0 13 4.75L13 4.25A0.25 0.25 0 0 0 12.75 4L12.25 4A0.25 0.25 0 0 0 12 4.25ZM15 6.25L15 6.75A0.25 0.25 0 0 0 15.25 7L15.75 7A0.25 0.25 0 0 0 16 6.75L16 6.25A0.25 0.25 0 0 0 15.75 6L15.25 6A0.25 0.25 0 0 0 15 6.25ZM26 6.25L26 8.75A0.25 0.25 0 0 1 25.75 9L25.25 9A0.25 0.25 0 0 0 25 9.25L25 9.75A0.25 0.25 0 0 0 25.25 10L26.75 10A0.25 0.25 0 0 0 27 9.75L27 9.25A0.25 0.25 0 0 1 27.25 9L27.75 9A0.25 0.25 0 0 1 28 9.25L28 9.75A0.25 0.25 0 0 0 28.25 10L28.75 10A0.25 0.25 0 0 1 29 10.25L29 10.75A0.25 0.25 0 0 1 28.75 11L25.25 11A0.25 0.25 0 0 0 25 11.25L25 11.75A0.25 0.25 0 0 1 24.75 12L24.25 12A0.25 0.25 0 0 0 24 12.25L24 12.75A0.25 0.25 0 0 1 23.75 13L23.25 13A0.25 0.25 0 0 1 23 12.75L23 12.25A0.25 0.25 0 0 0 22.75 12L22.25 12A0.25 0.25 0 0 0 22 12.25L22 13.75A0.25 0.25 0 0 0 22.25 14L24.75 14A0.25 0.25 0 0 1 25 14.25L25 14.75A0.25 0.25 0 0 1 24.75 15L24.25 15A0.25 0.25 0 0 0 24 15.25L24 15.75A0.25 0.25 0 0 0 24.25 16L24.75 16A0.25 0.25 0 0 1 25 16.25L25 16.75A0.25 0.25 0 0 0 25.25 17L25.75 17A0.25 0.25 0 0 0 26 16.75L26 16.25A0.25 0.25 0 0 0 25.75 16L25.25 16A0.25 0.25 0 0 1 25 15.75L25 15.25A0.25 0.25 0 0 1 25.25 15L26.75 15A0.25 0.25 0 0 1 27 15.25L27 15.75A0.25 0.25 0 0 0 27.25 16L27.75 16A0.25 0.25 0 0 1 28 16.25L28 16.75A0.25 0.25 0 0 0 28.25 17L28.75 17A0.25 0.25 0 0 0 29 16.75L29 14.25A0.25 0.25 0 0 1 29.25 14L29.75 14A0.25 0.25 0 0 0 30 13.75L30 13.25A0.25 0.25 0 0 1 30.25 13L30.75 13A0.25 0.25 0 0 1 31 13.25L31 14.75A0.25 0.25 0 0 1 30.75 15L30.25 15A0.25 0.25 0 0 0 30 15.25L30 15.75A0.25 0.25 0 0 0 30.25 16L30.75 16A0.25 0.25 0 0 1 31 16.25L31 16.75A0.25 0.25 0 0 0 31.25 17L31.75 17A0.25 0.25 0 0 0 32 16.75L32 16.25A0.25 0.25 0 0 1 32.25 16L32.75 16A0.25 0.25 0 0 1 33 16.25L33 16.75A0.25 0.25 0 0 0 33.25 17L33.75 17A0.25 0.25 0 0 0 34 16.75L34 16.25A0.25 0.25 0 0 0 33.75 16L33.25 16A0.25 0.25 0 0 1 33 15.75L33 15.25A0.25 0.25 0 0 0 32.75 15L32.25 15A0.25 0.25 0 0 1 32 14.75L32 12.25A0.25 0.25 0 0 0 31.75 12L31.25 12A0.25 0.25 0 0 1 31 11.75L31 10.25A0.25 0.25 0 0 1 31.25 10L31.75 10A0.25 0.25 0 0 0 32 9.75L32 9.25A0.25 0.25 0 0 0 31.75 9L31.25 9A0.25 0.25 0 0 0 31 9.25L31 9.75A0.25 0.25 0 0 1 30.75 10L30.25 10A0.25 0.25 0 0 1 30 9.75L30 7.25A0.25 0.25 0 0 1 30.25 7L30.75 7A0.25 0.25 0 0 0 31 6.75L31 6.25A0.25 0.25 0 0 0 30.75 6L30.25 6A0.25 0.25 0 0 0 30 6.25L30 6.75A0.25 0.25 0 0 1 29.75 7L29.25 7A0.25 0.25 0 0 1 29 6.75L29 6.25A0.25 0.25 0 0 0 28.75 6L28.25 6A0.25 0.25 0 0 0 28 6.25L28 6.75A0.25 0.25 0 0 0 28.25 7L28.75 7A0.25 0.25 0 0 1 29 7.25L29 7.75A0.25 0.25 0 0 1 28.75 8L27.25 8A0.25 0.25 0 0 1 27 7.75L27 6.25A0.25 0.25 0 0 0 26.75 6L26.25 6A0.25 0.25 0 0 0 26 6.25ZM21 8.25L21 8.75A0.25 0.25 0 0 0 21.25 9L21.75 9A0.25 0.25 0 0 0 22 8.75L22 8.25A0.25 0.25 0 0 0 21.75 8L21.25 8A0.25 0.25 0 0 0 21 8.25ZM6 9.25L6 9.75A0.25 0.25 0 0 0 6.25 10L6.75 10A0.25 0.25 0 0 0 7 9.75L7 9.25A0.25 0.25 0 0 0 6.75 9L6.25 9A0.25 0.25 0 0 0 6 9.25ZM20 11.25L20 11.75A0.25 0.25 0 0 1 19.75 12L19.25 12A0.25 0.25 0 0 0 19 12.25L19 13.75A0.25 0.25 0 0 1 18.75 14L17.25 14A0.25 0.25 0 0 0 17 14.25L17 14.75A0.25 0.25 0 0 0 17.25 15L20.75 15A0.25 0.25 0 0 0 21 14.75L21 11.25A0.25 0.25 0 0 0 20.75 11L20.25 11A0.25 0.25 0 0 0 20 11.25ZM29 11.25L29 11.75A0.25 0.25 0 0 0 29.25 12L29.75 12A0.25 0.25 0 0 0 30 11.75L30 11.25A0.25 0.25 0 0 0 29.75 11L29.25 11A0.25 0.25 0 0 0 29 11.25ZM7 13.25L7 13.75A0.25 0.25 0 0 0 7.25 14L7.75 14A0.25 0.25 0 0 0 8 13.75L8 13.25A0.25 0.25 0 0 0 7.75 13L7.25 13A0.25 0.25 0 0 0 7 13.25ZM25 13.25L25 13.75A0.25 0.25 0 0 0 25.25 14L25.75 14A0.25 0.25 0 0 0 26 13.75L26 13.25A0.25 0.25 0 0 0 25.75 13L25.25 13A0.25 0.25 0 0 0 25 13.25ZM27 13.25L27 14.75A0.25 0.25 0 0 0 27.25 15L27.75 15A0.25 0.25 0 0 0 28 14.75L28 13.25A0.25 0.25 0 0 0 27.75 13L27.25 13A0.25 0.25 0 0 0 27 13.25ZM9 14.25L9 14.75A0.25 0.25 0 0 1 8.75 15L7.25 15A0.25 0.25 0 0 0 7 15.25L7 15.75A0.25 0.25 0 0 1 6.75 16L6.25 16A0.25 0.25 0 0 0 6 16.25L6 16.75A0.25 0.25 0 0 0 6.25 17L6.75 17A0.25 0.25 0 0 0 7 16.75L7 16.25A0.25 0.25 0 0 1 7.25 16L7.75 16A0.25 0.25 0 0 1 8 16.25L8 17.75A0.25 0.25 0 0 1 7.75 18L4.25 18A0.25 0.25 0 0 0 4 18.25L4 18.75A0.25 0.25 0 0 0 4.25 19L6.75 19A0.25 0.25 0 0 1 7 19.25L7 19.75A0.25 0.25 0 0 1 6.75 20L6.25 20A0.25 0.25 0 0 0 6 20.25L6 20.75A0.25 0.25 0 0 0 6.25 21L6.75 21A0.25 0.25 0 0 1 7 21.25L7 21.75A0.25 0.25 0 0 0 7.25 22L7.75 22A0.25 0.25 0 0 1 8 22.25L8 23.75A0.25 0.25 0 0 1 7.75 24L6.25 24A0.25 0.25 0 0 0 6 24.25L6 24.75A0.25 0.25 0 0 0 6.25 25L7.75 25A0.25 0.25 0 0 1 8 25.25L8 26.75A0.25 0.25 0 0 0 8.25 27L8.75 27A0.25 0.25 0 0 0 9 26.75L9 25.25A0.25 0.25 0 0 0 8.75 25L8.25 25A0.25 0.25 0 0 1 8 24.75L8 24.25A0.25 0.25 0 0 1 8.25 24L8.75 24A0.25 0.25 0 0 0 9 23.75L9 23.25A0.25 0.25 0 0 1 9.25 23L9.75 23A0.25 0.25 0 0 1 10 23.25L10 23.75A0.25 0.25 0 0 0 10.25 24L10.75 24A0.25 0.25 0 0 1 11 24.25L11 25.75A0.25 0.25 0 0 0 11.25 26L13.75 26A0.25 0.25 0 0 1 14 26.25L14 26.75A0.25 0.25 0 0 1 13.75 27L11.25 27A0.25 0.25 0 0 0 11 27.25L11 27.75A0.25 0.25 0 0 1 10.75 28L8.25 28A0.25 0.25 0 0 0 8 28.25L8 28.75A0.25 0.25 0 0 0 8.25 29L9.75 29A0.25 0.25 0 0 1 10 29.25L10 29.75A0.25 0.25 0 0 0 10.25 30L10.75 30A0.25 0.25 0 0 0 11 29.75L11 28.25A0.25 0.25 0 0 1 11.25 28L11.75 28A0.25 0.25 0 0 1 12 28.25L12 28.75A0.25 0.25 0 0 0 12.25 29L12.75 29A0.25 0.25 0 0 0 13 28.75L13 28.25A0.25 0.25 0 0 1 13.25 28L13.75 28A0.25 0.25 0 0 0 14 27.75L14 27.25A0.25 0.25 0 0 1 14.25 27L14.75 27A0.25 0.25 0 0 0 15 26.75L15 26.25A0.25 0.25 0 0 0 14.75 26L14.25 26A0.25 0.25 0 0 1 14 25.75L14 25.25A0.25 0.25 0 0 1 14.25 25L14.75 25A0.25 0.25 0 0 0 15 24.75L15 24.25A0.25 0.25 0 0 1 15.25 24L15.75 24A0.25 0.25 0 0 0 16 23.75L16 22.25A0.25 0.25 0 0 1 16.25 22L16.75 22A0.25 0.25 0 0 1 17 22.25L17 22.75A0.25 0.25 0 0 0 17.25 23L17.75 23A0.25 0.25 0 0 1 18 23.25L18 23.75A0.25 0.25 0 0 1 17.75 24L17.25 24A0.25 0.25 0 0 0 17 24.25L17 24.75A0.25 0.25 0 0 1 16.75 25L16.25 25A0.25 0.25 0 0 0 16 25.25L16 25.75A0.25 0.25 0 0 0 16.25 26L16.75 26A0.25 0.25 0 0 1 17 26.25L17 26.75A0.25 0.25 0 0 1 16.75 27L16.25 27A0.25 0.25 0 0 0 16 27.25L16 27.75A0.25 0.25 0 0 1 15.75 28L15.25 28A0.25 0.25 0 0 0 15 28.25L15 28.75A0.25 0.25 0 0 0 15.25 29L15.75 29A0.25 0.25 0 0 1 16 29.25L16 29.75A0.25 0.25 0 0 1 15.75 30L15.25 30A0.25 0.25 0 0 0 15 30.25L15 30.75A0.25 0.25 0 0 0 15.25 31L16.75 31A0.25 0.25 0 0 1 17 31.25L17 31.75A0.25 0.25 0 0 1 16.75 32L16.25 32A0.25 0.25 0 0 0 16 32.25L16 32.75A0.25 0.25 0 0 0 16.25 33L16.75 33A0.25 0.25 0 0 0 17 32.75L17 32.25A0.25 0.25 0 0 1 17.25 32L17.75 32A0.25 0.25 0 0 1 18 32.25L18 32.75A0.25 0.25 0 0 0 18.25 33L18.75 33A0.25 0.25 0 0 1 19 33.25L19 33.75A0.25 0.25 0 0 0 19.25 34L21.75 34A0.25 0.25 0 0 0 22 33.75L22 32.25A0.25 0.25 0 0 0 21.75 32L21.25 32A0.25 0.25 0 0 1 21 31.75L21 31.25A0.25 0.25 0 0 1 21.25 31L22.75 31A0.25 0.25 0 0 0 23 30.75L23 30.25A0.25 0.25 0 0 0 22.75 30L21.25 30A0.25 0.25 0 0 1 21 29.75L21 28.25A0.25 0.25 0 0 1 21.25 28L21.75 28A0.25 0.25 0 0 1 22 28.25L22 28.75A0.25 0.25 0 0 0 22.25 29L22.75 29A0.25 0.25 0 0 0 23 28.75L23 28.25A0.25 0.25 0 0 1 23.25 28L23.75 28A0.25 0.25 0 0 0 24 27.75L24 27.25A0.25 0.25 0 0 1 24.25 27L25.75 27A0.25 0.25 0 0 1 26 27.25L26 27.75A0.25 0.25 0 0 1 25.75 28L25.25 28A0.25 0.25 0 0 0 25 28.25L25 28.75A0.25 0.25 0 0 1 24.75 29L24.25 29A0.25 0.25 0 0 0 24 29.25L24 29.75A0.25 0.25 0 0 0 24.25 30L24.75 30A0.25 0.25 0 0 1 25 30.25L25 30.75A0.25 0.25 0 0 0 25.25 31L25.75 31A0.25 0.25 0 0 0 26 30.75L26 30.25A0.25 0.25 0 0 1 26.25 30L26.75 30A0.25 0.25 0 0 0 27 29.75L27 29.25A0.25 0.25 0 0 0 26.75 29L26.25 29A0.25 0.25 0 0 1 26 28.75L26 28.25A0.25 0.25 0 0 1 26.25 28L26.75 28A0.25 0.25 0 0 0 27 27.75L27 27.25A0.25 0.25 0 0 0 26.75 27L26.25 27A0.25 0.25 0 0 1 26 26.75L26 26.25A0.25 0.25 0 0 0 25.75 26L25.25 26A0.25 0.25 0 0 1 25 25.75L25 25.25A0.25 0.25 0 0 0 24.75 25L24.25 25A0.25 0.25 0 0 0 24 25.25L24 26.75A0.25 0.25 0 0 1 23.75 27L22.25 27A0.25 0.25 0 0 1 22 26.75L22 26.25A0.25 0.25 0 0 1 22.25 26L22.75 26A0.25 0.25 0 0 0 23 25.75L23 24.25A0.25 0.25 0 0 0 22.75 24L22.25 24A0.25 0.25 0 0 0 22 24.25L22 24.75A0.25 0.25 0 0 1 21.75 25L21.25 25A0.25 0.25 0 0 1 21 24.75L21 23.25A0.25 0.25 0 0 0 20.75 23L20.25 23A0.25 0.25 0 0 0 20 23.25L20 23.75A0.25 0.25 0 0 1 19.75 24L19.25 24A0.25 0.25 0 0 1 19 23.75L19 22.25A0.25 0.25 0 0 0 18.75 22L18.25 22A0.25 0.25 0 0 1 18 21.75L18 21.25A0.25 0.25 0 0 0 17.75 21L17.25 21A0.25 0.25 0 0 1 17 20.75L17 20.25A0.25 0.25 0 0 1 17.25 20L18.75 20A0.25 0.25 0 0 1 19 20.25L19 20.75A0.25 0.25 0 0 0 19.25 21L19.75 21A0.25 0.25 0 0 1 20 21.25L20 21.75A0.25 0.25 0 0 0 20.25 22L21.75 22A0.25 0.25 0 0 0 22 21.75L22 21.25A0.25 0.25 0 0 0 21.75 21L21.25 21A0.25 0.25 0 0 1 21 20.75L21 19.25A0.25 0.25 0 0 0 20.75 19L19.25 19A0.25 0.25 0 0 1 19 18.75L19 18.25A0.25 0.25 0 0 0 18.75 18L18.25 18A0.25 0.25 0 0 0 18 18.25L18 18.75A0.25 0.25 0 0 1 17.75 19L17.25 19A0.25 0.25 0 0 1 17 18.75L17 18.25A0.25 0.25 0 0 0 16.75 18L15.25 18A0.25 0.25 0 0 0 15 18.25L15 18.75A0.25 0.25 0 0 0 15.25 19L15.75 19A0.25 0.25 0 0 1 16 19.25L16 19.75A0.25 0.25 0 0 1 15.75 20L15.25 20A0.25 0.25 0 0 0 15 20.25L15 20.75A0.25 0.25 0 0 1 14.75 21L14.25 21A0.25 0.25 0 0 1 14 20.75L14 20.25A0.25 0.25 0 0 0 13.75 20L13.25 20A0.25 0.25 0 0 0 13 20.25L13 20.75A0.25 0.25 0 0 0 13.25 21L13.75 21A0.25 0.25 0 0 1 14 21.25L14 21.75A0.25 0.25 0 0 0 14.25 22L14.75 22A0.25 0.25 0 0 1 15 22.25L15 23.75A0.25 0.25 0 0 1 14.75 24L14.25 24A0.25 0.25 0 0 1 14 23.75L14 23.25A0.25 0.25 0 0 0 13.75 23L11.25 23A0.25 0.25 0 0 1 11 22.75L11 22.25A0.25 0.25 0 0 0 10.75 22L10.25 22A0.25 0.25 0 0 1 10 21.75L10 21.25A0.25 0.25 0 0 1 10.25 21L10.75 21A0.25 0.25 0 0 0 11 20.75L11 20.25A0.25 0.25 0 0 1 11.25 20L11.75 20A0.25 0.25 0 0 0 12 19.75L12 19.25A0.25 0.25 0 0 0 11.75 19L10.25 19A0.25 0.25 0 0 1 10 18.75L10 18.25A0.25 0.25 0 0 0 9.75 18L9.25 18A0.25 0.25 0 0 1 9 17.75L9 15.25A0.25 0.25 0 0 1 9.25 15L9.75 15A0.25 0.25 0 0 0 10 14.75L10 14.25A0.25 0.25 0 0 0 9.75 14L9.25 14A0.25 0.25 0 0 0 9 14.25ZM16 16.25L16 16.75A0.25 0.25 0 0 0 16.25 17L18.75 17A0.25 0.25 0 0 0 19 16.75L19 16.25A0.25 0.25 0 0 0 18.75 16L16.25 16A0.25 0.25 0 0 0 16 16.25ZM8 18.25L8 18.75A0.25 0.25 0 0 0 8.25 19L8.75 19A0.25 0.25 0 0 1 9 19.25L9 19.75A0.25 0.25 0 0 1 8.75 20L7.25 20A0.25 0.25 0 0 0 7 20.25L7 20.75A0.25 0.25 0 0 0 7.25 21L7.75 21A0.25 0.25 0 0 1 8 21.25L8 21.75A0.25 0.25 0 0 0 8.25 22L8.75 22A0.25 0.25 0 0 0 9 21.75L9 21.25A0.25 0.25 0 0 1 9.25 21L9.75 21A0.25 0.25 0 0 0 10 20.75L10 19.25A0.25 0.25 0 0 0 9.75 19L9.25 19A0.25 0.25 0 0 1 9 18.75L9 18.25A0.25 0.25 0 0 0 8.75 18L8.25 18A0.25 0.25 0 0 0 8 18.25ZM33 18.25L33 18.75A0.25 0.25 0 0 0 33.25 19L33.75 19A0.25 0.25 0 0 0 34 18.75L34 18.25A0.25 0.25 0 0 0 33.75 18L33.25 18A0.25 0.25 0 0 0 33 18.25ZM28 19.25L28 19.75A0.25 0.25 0 0 1 27.75 20L27.25 20A0.25 0.25 0 0 0 27 20.25L27 20.75A0.25 0.25 0 0 0 27.25 21L27.75 21A0.25 0.25 0 0 0 28 20.75L28 20.25A0.25 0.25 0 0 1 28.25 20L28.75 20A0.25 0.25 0 0 1 29 20.25L29 21.75A0.25 0.25 0 0 0 29.25 22L29.75 22A0.25 0.25 0 0 0 30 21.75L30 20.25A0.25 0.25 0 0 0 29.75 20L29.25 20A0.25 0.25 0 0 1 29 19.75L29 19.25A0.25 0.25 0 0 0 28.75 19L28.25 19A0.25 0.25 0 0 0 28 19.25ZM39 20.25L39 21.75A0.25 0.25 0 0 0 39.25 22L39.75 22A0.25 0.25 0 0 0 40 21.75L40 20.25A0.25 0.25 0 0 0 39.75 20L39.25 20A0.25 0.25 0 0 0 39 20.25ZM34 21.25L34 21.75A0.25 0.25 0 0 0 34.25 22L34.75 22A0.25 0.25 0 0 1 35 22.25L35 22.75A0.25 0.25 0 0 0 35.25 23L35.75 23A0.25 0.25 0 0 0 36 22.75L36 22.25A0.25 0.25 0 0 0 35.75 22L35.25 22A0.25 0.25 0 0 1 35 21.75L35 21.25A0.25 0.25 0 0 0 34.75 21L34.25 21A0.25 0.25 0 0 0 34 21.25ZM13 24.25L13 24.75A0.25 0.25 0 0 0 13.25 25L13.75 25A0.25 0.25 0 0 0 14 24.75L14 24.25A0.25 0.25 0 0 0 13.75 24L13.25 24A0.25 0.25 0 0 0 13 24.25ZM18 24.25L18 24.75A0.25 0.25 0 0 1 17.75 25L17.25 25A0.25 0.25 0 0 0 17 25.25L17 25.75A0.25 0.25 0 0 0 17.25 26L18.75 26A0.25 0.25 0 0 0 19 25.75L19 24.25A0.25 0.25 0 0 0 18.75 24L18.25 24A0.25 0.25 0 0 0 18 24.25ZM20 25.25L20 26.75A0.25 0.25 0 0 1 19.75 27L19.25 27A0.25 0.25 0 0 0 19 27.25L19 28.75A0.25 0.25 0 0 1 18.75 29L18.25 29A0.25 0.25 0 0 0 18 29.25L18 29.75A0.25 0.25 0 0 0 18.25 30L18.75 30A0.25 0.25 0 0 1 19 30.25L19 30.75A0.25 0.25 0 0 1 18.75 31L18.25 31A0.25 0.25 0 0 0 18 31.25L18 31.75A0.25 0.25 0 0 0 18.25 32L19.75 32A0.25 0.25 0 0 0 20 31.75L20 31.25A0.25 0.25 0 0 1 20.25 31L20.75 31A0.25 0.25 0 0 0 21 30.75L21 30.25A0.25 0.25 0 0 0 20.75 30L19.25 30A0.25 0.25 0 0 1 19 29.75L19 29.25A0.25 0.25 0 0 1 19.25 29L19.75 29A0.25 0.25 0 0 0 20 28.75L20 28.25A0.25 0.25 0 0 1 20.25 28L20.75 28A0.25 0.25 0 0 0 21 27.75L21 25.25A0.25 0.25 0 0 0 20.75 25L20.25 25A0.25 0.25 0 0 0 20 25.25ZM6 26.25L6 26.75A0.25 0.25 0 0 0 6.25 27L6.75 27A0.25 0.25 0 0 0 7 26.75L7 26.25A0.25 0.25 0 0 0 6.75 26L6.25 26A0.25 0.25 0 0 0 6 26.25ZM37 26.25L37 26.75A0.25 0.25 0 0 0 37.25 27L38.75 27A0.25 0.25 0 0 1 39 27.25L39 28.75A0.25 0.25 0 0 0 39.25 29L40.75 29A0.25 0.25 0 0 0 41 28.75L41 26.25A0.25 0.25 0 0 0 40.75 26L37.25 26A0.25 0.25 0 0 0 37 26.25ZM0 30.25L0 30.75A0.25 0.25 0 0 0 0.25 31L0.75 31A0.25 0.25 0 0 0 1 30.75L1 30.25A0.25 0.25 0 0 0 0.75 30L0.25 30A0.25 0.25 0 0 0 0 30.25ZM6 31.25L6 31.75A0.25 0.25 0 0 0 6.25 32L6.75 32A0.25 0.25 0 0 0 7 31.75L7 31.25A0.25 0.25 0 0 0 6.75 31L6.25 31A0.25 0.25 0 0 0 6 31.25ZM11 31.25L11 31.75A0.25 0.25 0 0 0 11.25 32L11.75 32A0.25 0.25 0 0 0 12 31.75L12 31.25A0.25 0.25 0 0 0 11.75 31L11.25 31A0.25 0.25 0 0 0 11 31.25ZM1 32.25L1 32.75A0.25 0.25 0 0 0 1.25 33L1.75 33A0.25 0.25 0 0 0 2 32.75L2 32.25A0.25 0.25 0 0 0 1.75 32L1.25 32A0.25 0.25 0 0 0 1 32.25ZM29 33.25L29 33.75A0.25 0.25 0 0 0 29.25 34L30.75 34A0.25 0.25 0 0 0 31 33.75L31 33.25A0.25 0.25 0 0 0 30.75 33L29.25 33A0.25 0.25 0 0 0 29 33.25ZM33 33.25L33 35.75A0.25 0.25 0 0 0 33.25 36L35.75 36A0.25 0.25 0 0 0 36 35.75L36 33.25A0.25 0.25 0 0 0 35.75 33L33.25 33A0.25 0.25 0 0 0 33 33.25ZM34 34.25L34 34.75A0.25 0.25 0 0 0 34.25 35L34.75 35A0.25 0.25 0 0 0 35 34.75L35 34.25A0.25 0.25 0 0 0 34.75 34L34.25 34A0.25 0.25 0 0 0 34 34.25ZM38 34.25L38 35.75A0.25 0.25 0 0 1 37.75 36L37.25 36A0.25 0.25 0 0 0 37 36.25L37 36.75A0.25 0.25 0 0 0 37.25 37L37.75 37A0.25 0.25 0 0 1 38 37.25L38 37.75A0.25 0.25 0 0 1 37.75 38L36.25 38A0.25 0.25 0 0 0 36 38.25L36 39.75A0.25 0.25 0 0 0 36.25 40L36.75 40A0.25 0.25 0 0 0 37 39.75L37 39.25A0.25 0.25 0 0 1 37.25 39L37.75 39A0.25 0.25 0 0 0 38 38.75L38 38.25A0.25 0.25 0 0 1 38.25 38L38.75 38A0.25 0.25 0 0 0 39 37.75L39 37.25A0.25 0.25 0 0 0 38.75 37L38.25 37A0.25 0.25 0 0 1 38 36.75L38 36.25A0.25 0.25 0 0 1 38.25 36L38.75 36A0.25 0.25 0 0 0 39 35.75L39 34.25A0.25 0.25 0 0 0 38.75 34L38.25 34A0.25 0.25 0 0 0 38 34.25ZM11 35.25L11 35.75A0.25 0.25 0 0 1 10.75 36L10.25 36A0.25 0.25 0 0 0 10 36.25L10 36.75A0.25 0.25 0 0 1 9.75 37L9.25 37A0.25 0.25 0 0 0 9 37.25L9 39.75A0.25 0.25 0 0 0 9.25 40L9.75 40A0.25 0.25 0 0 0 10 39.75L10 38.25A0.25 0.25 0 0 1 10.25 38L10.75 38A0.25 0.25 0 0 0 11 37.75L11 36.25A0.25 0.25 0 0 1 11.25 36L11.75 36A0.25 0.25 0 0 0 12 35.75L12 35.25A0.25 0.25 0 0 0 11.75 35L11.25 35A0.25 0.25 0 0 0 11 35.25ZM13 36.25L13 37.75A0.25 0.25 0 0 0 13.25 38L15.75 38A0.25 0.25 0 0 0 16 37.75L16 37.25A0.25 0.25 0 0 0 15.75 37L15.25 37A0.25 0.25 0 0 1 15 36.75L15 36.25A0.25 0.25 0 0 0 14.75 36L13.25 36A0.25 0.25 0 0 0 13 36.25ZM24 36.25L24 36.75A0.25 0.25 0 0 1 23.75 37L23.25 37A0.25 0.25 0 0 0 23 37.25L23 37.75A0.25 0.25 0 0 0 23.25 38L24.75 38A0.25 0.25 0 0 0 25 37.75L25 36.25A0.25 0.25 0 0 0 24.75 36L24.25 36A0.25 0.25 0 0 0 24 36.25ZM32 37.25L32 37.75A0.25 0.25 0 0 0 32.25 38L32.75 38A0.25 0.25 0 0 1 33 38.25L33 38.75A0.25 0.25 0 0 0 33.25 39L33.75 39A0.25 0.25 0 0 1 34 39.25L34 39.75A0.25 0.25 0 0 0 34.25 40L34.75 40A0.25 0.25 0 0 0 35 39.75L35 37.25A0.25 0.25 0 0 0 34.75 37L34.25 37A0.25 0.25 0 0 0 34 37.25L34 37.75A0.25 0.25 0 0 1 33.75 38L33.25 38A0.25 0.25 0 0 1 33 37.75L33 37.25A0.25 0.25 0 0 0 32.75 37L32.25 37A0.25 0.25 0 0 0 32 37.25ZM0 0.25L0 6.75A0.25 0.25 0 0 0 0.25 7L6.75 7A0.25 0.25 0 0 0 7 6.75L7 0.25A0.25 0.25 0 0 0 6.75 0L0.25 0A0.25 0.25 0 0 0 0 0.25ZM1 1.25L1 5.75A0.25 0.25 0 0 0 1.25 6L5.75 6A0.25 0.25 0 0 0 6 5.75L6 1.25A0.25 0.25 0 0 0 5.75 1L1.25 1A0.25 0.25 0 0 0 1 1.25ZM2 2.25L2 4.75A0.25 0.25 0 0 0 2.25 5L4.75 5A0.25 0.25 0 0 0 5 4.75L5 2.25A0.25 0.25 0 0 0 4.75 2L2.25 2A0.25 0.25 0 0 0 2 2.25ZM34 0.25L34 6.75A0.25 0.25 0 0 0 34.25 7L40.75 7A0.25 0.25 0 0 0 41 6.75L41 0.25A0.25 0.25 0 0 0 40.75 0L34.25 0A0.25 0.25 0 0 0 34 0.25ZM35 1.25L35 5.75A0.25 0.25 0 0 0 35.25 6L39.75 6A0.25 0.25 0 0 0 40 5.75L40 1.25A0.25 0.25 0 0 0 39.75 1L35.25 1A0.25 0.25 0 0 0 35 1.25ZM36 2.25L36 4.75A0.25 0.25 0 0 0 36.25 5L38.75 5A0.25 0.25 0 0 0 39 4.75L39 2.25A0.25 0.25 0 0 0 38.75 2L36.25 2A0.25 0.25 0 0 0 36 2.25ZM0 34.25L0 40.75A0.25 0.25 0 0 0 0.25 41L6.75 41A0.25 0.25 0 0 0 7 40.75L7 34.25A0.25 0.25 0 0 0 6.75 34L0.25 34A0.25 0.25 0 0 0 0 34.25ZM1 35.25L1 39.75A0.25 0.25 0 0 0 1.25 40L5.75 40A0.25 0.25 0 0 0 6 39.75L6 35.25A0.25 0.25 0 0 0 5.75 35L1.25 35A0.25 0.25 0 0 0 1 35.25ZM2 36.25L2 38.75A0.25 0.25 0 0 0 2.25 39L4.75 39A0.25 0.25 0 0 0 5 38.75L5 36.25A0.25 0.25 0 0 0 4.75 36L2.25 36A0.25 0.25 0 0 0 2 36.25Z" fill="#000000"/></g></g></svg>
