<?xml version="1.0"?>
<svg xmlns="http://www.w3.org/2000/svg" viewBox="0 0 64 64" width="512" height="512"><g id="Bussiness-Coin-Money-Home-Global"><path d="M30.66,4.22a1.994,1.994,0,0,1,2.68,0l26.82,24.3A2,2,0,0,1,58.81,32H58a2.006,2.006,0,0,0-2,2V59a2.006,2.006,0,0,1-2,2H41a2.006,2.006,0,0,1-2-2V52a2.006,2.006,0,0,0-2-2H27a2.006,2.006,0,0,0-2,2v7a2.006,2.006,0,0,1-2,2H10a2.006,2.006,0,0,1-2-2V34a2.006,2.006,0,0,0-2-2H5.19a2,2,0,0,1-1.35-3.48Z" style="fill:#e0e0e2"/><path d="M10.34,22.63c.22.07.45.12.67.17a8.811,8.811,0,0,1-1.03.15Z" style="fill:#c6c5ca"/><path d="M58.81,32H58a2.006,2.006,0,0,0-2,2V59a2.006,2.006,0,0,1-2,2H50a2.006,2.006,0,0,0,2-2V34a2.006,2.006,0,0,1,2-2h.81a2,2,0,0,0,1.35-3.48L30,4.82l.66-.6a1.994,1.994,0,0,1,2.68,0l26.82,24.3A2,2,0,0,1,58.81,32Z" style="fill:#c6c5ca"/><circle cx="32" cy="32" r="12" style="fill:#ffd422"/><path d="M44,32A11.988,11.988,0,0,1,30,43.83a12,12,0,0,0,0-23.66A11.988,11.988,0,0,1,44,32Z" style="fill:#ebbf00"/><path d="M23,13H17a23.07,23.07,0,0,0-.46-4.66A9.968,9.968,0,0,0,20.14,6a9.965,9.965,0,0,1,2.71,5.3A9.513,9.513,0,0,1,23,13Z" style="fill:#2488ff"/><path d="M17,13h6a9.947,9.947,0,0,1-2.86,7,9.968,9.968,0,0,0-3.6-2.34A23.07,23.07,0,0,0,17,13Z" style="fill:#57a4ff"/><path d="M13,3a9.994,9.994,0,0,1,7.14,3,9.968,9.968,0,0,1-3.6,2.34C15.87,5.17,14.54,3,13,3Z" style="fill:#57a4ff"/><path d="M20.14,20A9.994,9.994,0,0,1,13,23c1.54,0,2.87-2.17,3.54-5.34A9.968,9.968,0,0,1,20.14,20Z" style="fill:#2488ff"/><path d="M17,13H9a23.07,23.07,0,0,1,.46-4.66A9.683,9.683,0,0,0,13,9a9.683,9.683,0,0,0,3.54-.66A23.07,23.07,0,0,1,17,13Z" style="fill:#57a4ff"/><path d="M9,13h8a23.07,23.07,0,0,1-.46,4.66,9.824,9.824,0,0,0-7.08,0A23.07,23.07,0,0,1,9,13Z" style="fill:#2488ff"/><path d="M13,3c1.54,0,2.87,2.17,3.54,5.34A9.683,9.683,0,0,1,13,9a9.683,9.683,0,0,1-3.54-.66C10.13,5.17,11.46,3,13,3Z" style="fill:#2488ff"/><path d="M16.54,17.66C15.87,20.83,14.54,23,13,23s-2.87-2.17-3.54-5.34a9.824,9.824,0,0,1,7.08,0Z" style="fill:#57a4ff"/><path d="M13,23a9.393,9.393,0,0,1-2.66-.37A9.89,9.89,0,0,1,5.86,20a9.968,9.968,0,0,1,3.6-2.34C10.13,20.83,11.46,23,13,23Z" style="fill:#2488ff"/><path d="M13,3c-1.54,0-2.87,2.17-3.54,5.34A9.968,9.968,0,0,1,5.86,6,9.994,9.994,0,0,1,13,3Z" style="fill:#57a4ff"/><path d="M5.86,6a9.968,9.968,0,0,0,3.6,2.34A23.07,23.07,0,0,0,9,13H3A9.947,9.947,0,0,1,5.86,6Z" style="fill:#2488ff"/><path d="M9.46,17.66A9.968,9.968,0,0,0,5.86,20,9.947,9.947,0,0,1,3,13H9A23.07,23.07,0,0,0,9.46,17.66Z" style="fill:#57a4ff"/><path d="M60.83,27.78,34.01,3.48a2.98,2.98,0,0,0-4.02,0L23.4,9.45A10.993,10.993,0,1,0,8.44,23L3.17,27.78A3,3,0,0,0,5.19,33H6a1,1,0,0,1,1,1V59a3.009,3.009,0,0,0,3,3H23a3.009,3.009,0,0,0,3-3V52a1,1,0,0,1,1-1H37a1,1,0,0,1,1,1v7a3.009,3.009,0,0,0,3,3H54a3.009,3.009,0,0,0,3-3V34a1,1,0,0,1,1-1h.81a3,3,0,0,0,2.02-5.22ZM21.94,12H17.98a23.513,23.513,0,0,0-.32-3.05,11.038,11.038,0,0,0,2.4-1.52A8.95,8.95,0,0,1,21.94,12Zm0,2a8.95,8.95,0,0,1-1.88,4.57,11.038,11.038,0,0,0-2.4-1.52A23.513,23.513,0,0,0,17.98,14ZM18.65,6a8.734,8.734,0,0,1-1.44.95,12.77,12.77,0,0,0-.89-2.31A9.184,9.184,0,0,1,18.65,6ZM17.21,19.05a8.734,8.734,0,0,1,1.44.95,9.184,9.184,0,0,1-2.33,1.36A12.77,12.77,0,0,0,17.21,19.05ZM13,4c.76,0,1.73,1.35,2.36,3.68A9.265,9.265,0,0,1,13,8a9.265,9.265,0,0,1-2.36-.32C11.27,5.35,12.24,4,13,4ZM10.24,9.64A11.054,11.054,0,0,0,13,10a11.054,11.054,0,0,0,2.76-.36A20.617,20.617,0,0,1,15.98,12H10.02A20.617,20.617,0,0,1,10.24,9.64ZM15.98,14a20.617,20.617,0,0,1-.22,2.36,10.76,10.76,0,0,0-5.52,0A20.617,20.617,0,0,1,10.02,14Zm-.62,4.32C14.73,20.65,13.76,22,13,22s-1.73-1.35-2.36-3.68a8.863,8.863,0,0,1,4.72,0ZM9.68,4.64a12.77,12.77,0,0,0-.89,2.31A8.734,8.734,0,0,1,7.35,6,9.184,9.184,0,0,1,9.68,4.64ZM5.94,7.43a11.038,11.038,0,0,0,2.4,1.52A23.513,23.513,0,0,0,8.02,12H4.06A8.95,8.95,0,0,1,5.94,7.43ZM4.06,14H8.02a23.513,23.513,0,0,0,.32,3.05,11.038,11.038,0,0,0-2.4,1.52A8.95,8.95,0,0,1,4.06,14Zm3.29,6a8.734,8.734,0,0,1,1.44-.95,12.77,12.77,0,0,0,.89,2.31A9.184,9.184,0,0,1,7.35,20Zm52.4,10.36a.988.988,0,0,1-.94.64H58a3.009,3.009,0,0,0-3,3V59a1,1,0,0,1-1,1H41a1,1,0,0,1-1-1V52a3.009,3.009,0,0,0-3-3H27a3.009,3.009,0,0,0-3,3v7a1,1,0,0,1-1,1H10a1,1,0,0,1-1-1V34a3.009,3.009,0,0,0-3-3H5.19a1,1,0,0,1-.68-1.74l6.1-5.53A10.971,10.971,0,0,0,24,13a9.649,9.649,0,0,0-.09-1.32l7.42-6.72a.986.986,0,0,1,1.34,0l26.82,24.3A.993.993,0,0,1,59.75,30.36Z"/><path d="M32,19A13,13,0,1,0,45,32,13.012,13.012,0,0,0,32,19Zm0,24A11,11,0,1,1,43,32,11.007,11.007,0,0,1,32,43Z"/><path d="M36,35a4,4,0,0,1-3,3.86V40H31V38.86A4,4,0,0,1,28,35h2a2,2,0,1,0,2-2,3.993,3.993,0,0,1-1-7.86V24h2v1.14A4,4,0,0,1,36,29H34a2,2,0,1,0-2,2A4,4,0,0,1,36,35Z"/><path d="M51,12a1,1,0,0,1,1,1,1,1,0,0,0,2,0,3,3,0,0,0-3-3,1,1,0,0,0,0,2Z"/><path d="M51,8a5.006,5.006,0,0,1,5,5,1,1,0,0,0,2,0,7.008,7.008,0,0,0-7-7,1,1,0,0,0,0,2Z"/><path d="M51,4a9.011,9.011,0,0,1,9,9,1,1,0,0,0,2,0A11.013,11.013,0,0,0,51,2a1,1,0,0,0,0,2Z"/></g></svg>
