<?xml version="1.0" encoding="UTF-8"?>
<!-- Generator: Adobe Illustrator 21.0.2, SVG Export Plug-In . SVG Version: 6.00 Build 0)  -->
<svg version="1.1" id="Livello_1" xmlns="http://www.w3.org/2000/svg" xmlns:xlink="http://www.w3.org/1999/xlink" x="0px" y="0px" viewBox="0 0 200 200" style="enable-background:new 0 0 200 200;" xml:space="preserve">
<style type="text/css">
	.st0{fill:#FFFFFF;}
	.st1{fill:#89C540;stroke:#000000;stroke-width:0.5;stroke-miterlimit:10;}
	.st2{fill:#0099CC;}
</style>
<g id="Livello_1_2_">
	<g id="EJVr5A.tif">
		<g>
			<path class="st0" d="M99.9,182.6c23.8,0,47.7-0.1,71.5,0.1c5,0.1,6.2-1.7,6.1-6.3c-0.2-27-0.1-54,0-81c0-2.1,1.2-4.9,2.8-6.2     c9-7.2,10.5-25,6.4-34.3c-5.1-11.5-11.2-22.6-16.8-34c-1.2-2.6-2.7-3.7-5.7-3.7c-42.8,0.1-85.6,0.1-128.5,0c-3.2,0-4.7,1.3-6,4     c-4.7,9.8-9.2,19.6-14.5,29c-4.9,8.6-4.7,17.6-2.7,26.5c1,4.3,3.8,8.5,6.9,11.8c2.3,2.5,3.1,4.6,3.1,7.8     c-0.1,26.8,0,53.7-0.1,80.5c0,4.6,1.3,6,6,6C52.2,182.5,76,182.6,99.9,182.6z"/>
			<path d="M99.9,182.6c-23.8,0-47.7-0.1-71.5,0.1c-4.7,0-6-1.4-6-6c0.2-26.8,0.1-53.7,0.1-80.5c0-3.2-0.8-5.3-3.1-7.8     c-3.1-3.3-5.9-7.5-6.9-11.8c-2.1-8.9-2.2-17.9,2.7-26.5C20.5,40.8,25,31,29.8,21.3c1.3-2.7,2.8-4,6-4c42.8,0.1,85.6,0.1,128.5,0     c3,0,4.4,1.1,5.7,3.7c5.5,11.4,11.6,22.4,16.8,34c4.1,9.3,2.6,27.1-6.4,34.3c-1.6,1.3-2.7,4.1-2.8,6.2c-0.2,27-0.2,54,0,81     c0,4.7-1.1,6.4-6.1,6.3C147.5,182.5,123.7,182.6,99.9,182.6z M44.5,177.3c0-2.2,0-4,0-5.8c0-18.2,0.1-36.3-0.1-54.5     c0-4.2,1.1-6,5.6-5.9c11,0.3,22,0.3,33,0c4.4-0.1,5.7,1.3,5.7,5.7c-0.2,18.3-0.1,36.7-0.1,55c0,1.8,0.1,3.5,0.2,5.4     c27.8,0,55.1,0,82.5,0c0-27.7,0-55.2,0-83c-12.4,2.5-21.8-1.2-28.5-11.5c-12.2,17.6-33.3,15.2-43.1-0.2c-5,8-12.1,12.4-21.4,12.5     C69,95,62,90.3,56.8,82.5c-6.9,11-16.8,14-28.6,11.9c0,28,0,55.4,0,82.9C33.7,177.3,38.7,177.3,44.5,177.3z M83.2,116.9     c-11.3,0-22,0-32.7,0c0,20.3,0,40.2,0,60.2c11,0,21.7,0,32.7,0C83.2,156.9,83.2,137,83.2,116.9z M67.5,22.8     c-2.3,10.9-4.6,21.7-7,32.7c12.5,0,24.4,0,36.4,0c0-11.1,0-21.8,0-32.7C87.2,22.8,77.7,22.8,67.5,22.8z M139.4,55.5     c-2.5-11.3-4.8-22.1-7.1-32.6c-10.3,0-19.9,0-29.5,0c0,11,0,21.6,0,32.6C115,55.5,126.9,55.5,139.4,55.5z M62,22.6     c-8.7,0-16.6,0-24.4,0.1c-1,0-2.5,0.6-2.9,1.3c-5.3,10.3-10.4,20.7-16,31.9c12.1,0,23.1,0,34.2-0.1c0.8,0,2.2-1.1,2.4-1.9     C57.5,43.6,59.7,33.4,62,22.6z M181.2,55.8c-5.6-11.2-10.6-21.3-15.8-31.3c-0.5-0.9-2-1.8-3-1.9c-8-0.2-15.9-0.1-24.5-0.1     c2.3,10.7,4.4,20.9,6.7,31.1c0.2,0.9,1.8,2,2.7,2C158.3,55.9,169.2,55.8,181.2,55.8z M17.2,61.6c-1,10.1-0.8,19.4,8.6,25.2     c6.7,4.1,13.7,3.9,20.2-0.4c9-6,8.8-15.2,8-24.8C41.8,61.6,29.7,61.6,17.2,61.6z M145.8,61.5c-1,10.5-0.7,19.9,9.4,25.8     c6.4,3.7,14.8,2.9,20.6-1.7c6.7-5.4,9.1-14.4,6.3-24.1C170.2,61.5,158.2,61.5,145.8,61.5z M97,61.6c-12.5,0-24.7,0-37.2,0     c-0.7,9.6-0.7,18.7,8.2,24.7c6.3,4.3,13.2,4.6,19.8,0.8C97.6,81.5,98,72.1,97,61.6z M102.9,61.6c-1.3,14,1.5,21.4,9.5,25.8     c6.5,3.6,14.7,2.8,20.6-1.8c6.4-5.1,9-14.7,6.5-24C127.4,61.6,115.3,61.6,102.9,61.6z"/>
			<path class="st0" d="M44.5,177.3c-5.8,0-10.8,0-16.2,0c0-27.5,0-54.9,0-82.9c11.8,2.1,21.7-0.9,28.6-11.9     C62.1,90.4,69.1,95,78.4,95c9.4,0,16.5-4.4,21.4-12.5c9.8,15.4,31,17.8,43.1,0.2c6.7,10.3,16.1,13.9,28.5,11.5     c0,27.8,0,55.3,0,83c-27.4,0-54.7,0-82.5,0c-0.1-1.8-0.2-3.6-0.2-5.4c0-18.3-0.1-36.7,0.1-55c0.1-4.4-1.3-5.8-5.7-5.7     c-11,0.3-22,0.3-33,0c-4.5-0.1-5.7,1.6-5.6,5.9c0.2,18.2,0.1,36.3,0.1,54.5C44.5,173.3,44.5,175.1,44.5,177.3z M129.2,111.2     c-7.3,0-14.6,0.1-22-0.1c-3.5-0.1-4.7,1.4-4.7,4.7c0.1,10.7,0.1,21.3,0,32c0,3.4,1.5,4.7,4.9,4.7c14.3-0.1,28.6-0.1,42.9,0     c3.7,0,5-1.6,5-5.1c-0.1-10.3-0.1-20.6,0-31c0.1-3.8-1.2-5.4-5.2-5.3C143.2,111.4,136.2,111.2,129.2,111.2z"/>
			<path d="M83.2,116.9c0,20.1,0,40,0,60.2c-10.9,0-21.6,0-32.7,0c0-20,0-39.9,0-60.2C61.2,116.9,71.9,116.9,83.2,116.9z"/>
			<path class="st1" d="M67.5,22.8c10.2,0,19.6,0,29.4,0c0,10.9,0,21.6,0,32.7c-12,0-23.9,0-36.4,0C62.9,44.5,65.2,33.7,67.5,22.8z"/>
			<g>
				<polygon class="st2" points="102.6,55.7 102.6,22.7 132.5,22.7 139.7,55.7     "/>
				<path d="M132.3,22.9c2.3,10.5,4.6,21.2,7.1,32.6c-12.5,0-24.4,0-36.6,0c0-10.9,0-21.5,0-32.6C112.4,22.9,122,22.9,132.3,22.9       M132.7,22.4h-0.4h-29.5h-0.5v0.5v32.6V56h0.5h36.6h0.6l-0.1-0.6l-7.1-32.6L132.7,22.4L132.7,22.4z"/>
			</g>
			<g>
				<path class="st2" d="M18.3,56l3.5-7c4.4-8.7,8.5-17,12.7-25.2c0.5-0.9,2.1-1.4,3.1-1.4c4.5-0.1,8.8-0.1,12.5-0.1h12.2l-1.5,6.9      c-1.8,8.5-3.5,16.6-5.3,24.6c-0.2,0.9-1.7,2.1-2.6,2.1C45.8,56,38.7,56,32.7,56H18.3z"/>
				<path d="M50.1,22.5c3.8,0,7.7,0,11.9,0c-2.3,10.9-4.4,21.1-6.7,31.3c-0.2,0.8-1.5,1.9-2.4,1.9c-6.7,0.1-13.4,0.1-20.3,0.1      c-4.5,0-9.2,0-14,0c5.6-11.2,10.7-21.6,16-31.9c0.4-0.8,1.9-1.3,2.9-1.3C41.7,22.6,45.8,22.5,50.1,22.5 M50.1,22      c-3.7,0-8,0-12.5,0.1c-1.1,0-2.8,0.6-3.3,1.6c-4.2,8.2-8.4,16.5-12.7,25.2c-1.1,2.2-2.2,4.4-3.3,6.6l-0.4,0.7h0.8      c2.4,0,4.8,0,7.2,0h6.8c6.1,0,13.2,0,20.3-0.1c1,0,2.6-1.3,2.8-2.3c1.8-8.1,3.5-16.2,5.3-24.7c0.5-2.2,0.9-4.4,1.4-6.6l0.1-0.6      H62c-2.1,0-4.2,0-6.2,0C53.9,22,52,22,50.1,22L50.1,22z"/>
			</g>
			<path class="st1" d="M181.2,55.8c-12,0-23,0.1-33.9-0.1c-0.9,0-2.5-1.2-2.7-2c-2.3-10.2-4.4-20.4-6.7-31.1     c8.6,0,16.5-0.1,24.5,0.1c1,0,2.6,0.9,3,1.9C170.6,34.5,175.6,44.6,181.2,55.8z"/>
			<g>
				<path class="st2" d="M35.7,90c-3.3,0-6.7-1-9.9-3C15.9,81,16,71.2,17,61.6v-0.2h37.3v0.2c0.8,10.1,0.8,19-8.1,25      C42.8,88.9,39.3,90,35.7,90z"/>
				<path d="M54.1,61.6c0.8,9.6,1,18.7-8,24.8c-3.4,2.3-6.9,3.4-10.4,3.4c-3.3,0-6.6-1-9.8-3c-9.5-5.8-9.6-15.1-8.6-25.2      C29.7,61.6,41.8,61.6,54.1,61.6 M54.6,61.1h-0.5H17.2h-0.5v0.5c-1,9.6-1.1,19.6,8.9,25.7c3.3,2,6.7,3,10.1,3      c3.6,0,7.2-1.2,10.7-3.5c9.1-6,9.1-15,8.3-25.2L54.6,61.1L54.6,61.1z"/>
			</g>
			<path class="st1" d="M145.8,61.5c12.4,0,24.4,0,36.3,0c2.8,9.6,0.3,18.7-6.3,24.1c-5.8,4.6-14.2,5.4-20.6,1.7     C145.1,81.5,144.8,72,145.8,61.5z"/>
			<path class="st1" d="M97,61.6c0.9,10.4,0.5,19.9-9.3,25.5c-6.6,3.8-13.4,3.5-19.8-0.8c-8.9-6-8.9-15.1-8.2-24.7     C72.3,61.6,84.5,61.6,97,61.6z"/>
			<g>
				<path class="st2" d="M121.2,89.9c-3.2,0-6.2-0.8-9-2.3c-8.2-4.5-10.9-12-9.6-26v-0.2h36.9l0.1,0.2c2.6,9.4,0,19.1-6.5,24.2      C129.8,88.4,125.5,89.9,121.2,89.9z"/>
				<path d="M139.4,61.6c2.6,9.3,0,18.9-6.5,24c-3.4,2.7-7.6,4.1-11.7,4.1c-3.1,0-6.1-0.7-8.8-2.2c-8-4.4-10.8-11.8-9.5-25.8      C115.3,61.6,127.4,61.6,139.4,61.6 M139.8,61.1h-0.4h-36.5h-0.5v0.5c-1.3,14.1,1.5,21.7,9.7,26.3c2.7,1.5,5.9,2.3,9.1,2.3      c4.4,0,8.6-1.5,12.1-4.2c6.6-5.2,9.3-15,6.6-24.5L139.8,61.1L139.8,61.1z"/>
			</g>
			<path d="M129.2,111.2c7,0,14,0.2,21-0.1c4-0.1,5.2,1.5,5.2,5.3c-0.2,10.3-0.1,20.6,0,31c0,3.5-1.2,5.2-5,5.1     c-14.3-0.1-28.6-0.1-42.9,0c-3.4,0-4.9-1.3-4.9-4.7c0.1-10.7,0.1-21.3,0-32c0-3.3,1.2-4.8,4.7-4.7     C114.6,111.4,121.9,111.2,129.2,111.2z M108.6,116.7c0,10.3,0,20.1,0,29.9c13.8,0,27.3,0,40.8,0c0-10.2,0-19.9,0-29.9     C135.7,116.7,122.3,116.7,108.6,116.7z"/>
			<path class="st2" d="M108.6,116.7c13.7,0,27.1,0,40.8,0c0,9.9,0,19.7,0,29.9c-13.5,0-27,0-40.8,0     C108.6,136.8,108.6,127,108.6,116.7z"/>
		</g>
	</g>
</g>
</svg>