<svg xmlns="http://www.w3.org/2000/svg" viewBox="0 0 81.18 70"><defs><style>.cls-1{fill:#f96900;}</style></defs><title>Asset 5</title><g id="Layer_2" data-name="Layer 2"><g id="Layer_1-2" data-name="Layer 1"><path class="cls-1" d="M67.58,38.17a2.42,2.42,0,0,0-2.42,2.42V65.16H16V40.59a2.42,2.42,0,0,0-4.84,0v27A2.42,2.42,0,0,0,13.6,70h54A2.42,2.42,0,0,0,70,67.58v-27A2.42,2.42,0,0,0,67.58,38.17Z"/><path class="cls-1" d="M80.47,38.88,42.3.71a2.42,2.42,0,0,0-3.42,0L.71,38.88A2.42,2.42,0,0,0,4.13,42.3L40.59,5.84,77,42.3a2.42,2.42,0,1,0,3.42-3.42Z"/></g></g></svg>