<svg xmlns="http://www.w3.org/2000/svg" viewBox="0 0 87.48 121.44"><defs><style>.cls-1{fill:#455b2a;opacity:0.7;}.cls-2{fill:#d2d5cf;}.cls-3{fill:#a8aaa2;}.cls-4{fill:#dfe0de;}.cls-5{fill:#82c5e1;}.cls-6{fill:#467988;}.cls-7{fill:#b2e1ef;}.cls-8{fill:#919289;}</style></defs><title>b_empresa</title><g id="Capa_2" data-name="Capa 2"><g id="DESIGNED_BY_FREEPIK" data-name="DESIGNED BY FREEPIK"><polygon class="cls-1" points="87.48 96.21 43.77 121.44 0 96.19 43.72 70.97 87.48 96.21"/><polygon class="cls-2" points="7.16 95.14 7.16 21.23 43.77 42.35 43.73 116.25 7.16 95.14"/><polygon class="cls-3" points="80.27 95.1 43.73 116.25 43.77 42.35 80.32 21.25 80.27 95.1"/><polygon class="cls-4" points="7.16 21.23 43.73 0.14 80.32 21.25 43.77 42.35 7.16 21.23"/><polygon class="cls-4" points="15 17.36 43.73 0.79 72.48 17.38 43.76 33.95 15 17.36"/><polygon class="cls-2" points="15 21.23 15 17.36 43.76 33.95 43.76 37.83 15 21.23"/><polygon class="cls-3" points="72.48 17.38 72.48 21.25 43.76 37.83 43.76 33.95 72.48 17.38"/><polygon class="cls-4" points="23.85 11.47 43.73 0 63.63 11.48 43.75 22.95 23.85 11.47"/><polygon class="cls-2" points="23.85 17.45 23.85 11.48 43.75 22.96 43.75 28.93 23.85 17.45"/><polygon class="cls-3" points="63.63 11.49 63.63 17.46 43.75 28.93 43.75 22.96 63.63 11.49"/><polygon class="cls-5" points="52.86 47.63 52.9 100.41 57.44 97.77 57.44 45 52.86 47.63"/><polygon class="cls-6" points="57.45 97.77 56.51 97.25 56.51 45.54 57.45 45 57.45 97.77"/><polygon class="cls-7" points="52.9 100.41 57.45 97.77 56.51 97.25 52.9 99.34 52.9 100.41"/><polygon class="cls-5" points="13.07 43.02 13.05 34.43 19.76 38.33 19.75 46.83 13.07 43.02"/><polygon class="cls-6" points="14.46 35.23 13.07 34.43 13.07 43.02 14.46 42.22 14.46 35.23"/><polygon class="cls-7" points="14.46 42.22 19.77 45.35 19.75 46.91 13.05 43.02 14.46 42.22"/><polygon class="cls-5" points="22.59 48.63 22.57 40.05 29.28 43.95 29.27 52.45 22.59 48.63"/><polygon class="cls-6" points="23.98 40.84 22.59 40.05 22.59 48.63 23.98 47.83 23.98 40.84"/><polygon class="cls-7" points="23.98 47.84 29.29 50.97 29.27 52.52 22.57 48.64 23.98 47.84"/><polygon class="cls-5" points="32.45 54.44 32.43 45.86 39.14 49.76 39.13 58.26 32.45 54.44"/><polygon class="cls-6" points="33.84 46.66 32.45 45.86 32.45 54.44 33.84 53.64 33.84 46.66"/><polygon class="cls-7" points="33.84 53.65 39.15 56.78 39.13 58.34 32.43 54.45 33.84 53.65"/><polygon class="cls-5" points="13.07 55.42 13.05 46.83 19.76 50.73 19.75 59.23 13.07 55.42"/><polygon class="cls-6" points="14.46 47.63 13.07 46.83 13.07 55.42 14.46 54.62 14.46 47.63"/><polygon class="cls-7" points="14.46 54.62 19.77 57.75 19.75 59.31 13.05 55.42 14.46 54.62"/><polygon class="cls-5" points="22.59 61.03 22.57 52.45 29.28 56.35 29.27 64.85 22.59 61.03"/><polygon class="cls-6" points="23.98 53.25 22.59 52.45 22.59 61.03 23.98 60.23 23.98 53.25"/><polygon class="cls-7" points="23.98 60.24 29.29 63.37 29.27 64.92 22.57 61.04 23.98 60.24"/><polygon class="cls-5" points="32.45 66.84 32.43 58.26 39.14 62.16 39.13 70.66 32.45 66.84"/><polygon class="cls-6" points="33.84 59.06 32.45 58.26 32.45 66.84 33.84 66.04 33.84 59.06"/><polygon class="cls-7" points="33.84 66.05 39.15 69.18 39.13 70.74 32.43 66.85 33.84 66.05"/><polygon class="cls-5" points="13.07 67.82 13.05 59.23 19.76 63.13 19.75 71.63 13.07 67.82"/><polygon class="cls-6" points="14.46 60.03 13.07 59.23 13.07 67.82 14.46 67.02 14.46 60.03"/><polygon class="cls-7" points="14.46 67.02 19.77 70.15 19.75 71.71 13.05 67.82 14.46 67.02"/><polygon class="cls-5" points="22.59 73.43 22.57 64.85 29.28 68.75 29.27 77.25 22.59 73.43"/><polygon class="cls-6" points="23.98 65.65 22.59 64.85 22.59 73.43 23.98 72.63 23.98 65.65"/><polygon class="cls-7" points="23.98 72.64 29.29 75.77 29.27 77.33 22.57 73.44 23.98 72.64"/><polygon class="cls-5" points="32.45 79.24 32.43 70.66 39.14 74.56 39.13 83.06 32.45 79.24"/><polygon class="cls-6" points="33.84 71.46 32.45 70.66 32.45 79.24 33.84 78.44 33.84 71.46"/><polygon class="cls-7" points="33.84 78.45 39.15 81.58 39.13 83.14 32.43 79.25 33.84 78.45"/><polygon class="cls-5" points="13.07 80.22 13.05 71.63 19.76 75.53 19.75 84.03 13.07 80.22"/><polygon class="cls-6" points="14.46 72.43 13.07 71.63 13.07 80.22 14.46 79.42 14.46 72.43"/><polygon class="cls-7" points="14.46 79.42 19.77 82.55 19.75 84.11 13.05 80.22 14.46 79.42"/><polygon class="cls-5" points="22.59 85.83 22.57 77.25 29.28 81.15 29.27 89.65 22.59 85.83"/><polygon class="cls-6" points="23.98 78.05 22.59 77.25 22.59 85.83 23.98 85.03 23.98 78.05"/><polygon class="cls-7" points="23.98 85.04 29.29 88.17 29.27 89.73 22.57 85.84 23.98 85.04"/><polygon class="cls-5" points="32.45 91.64 32.43 83.06 39.14 86.96 39.13 95.46 32.45 91.64"/><polygon class="cls-6" points="33.84 83.86 32.45 83.06 32.45 91.64 33.84 90.84 33.84 83.86"/><polygon class="cls-7" points="33.84 90.85 39.15 93.98 39.13 95.54 32.43 91.65 33.84 90.85"/><polygon class="cls-5" points="66.57 39.71 66.61 92.5 71.16 89.85 71.15 37.08 66.57 39.71"/><polygon class="cls-6" points="71.16 89.85 70.22 89.33 70.22 37.62 71.16 37.08 71.16 89.85"/><polygon class="cls-7" points="66.61 92.5 71.16 89.85 70.22 89.33 66.61 91.43 66.61 92.5"/><polygon class="cls-3" points="22.11 103.77 22.13 91.19 28.82 95.09 28.81 107.66 22.11 103.77"/><polygon class="cls-8" points="28.82 95.09 22.13 91.19 22.13 103.71 28.81 100.05 28.82 95.09"/></g></g></svg>